<?xml version="1.0" encoding="UTF-8" standalone="no"?>
<svg width="22px" height="22px" viewBox="0 0 22 22" version="1.1" xmlns="http://www.w3.org/2000/svg" xmlns:xlink="http://www.w3.org/1999/xlink">
    <!-- Generator: Sketch 45.1 (43504) - http://www.bohemiancoding.com/sketch -->
    <title>admin</title>
    <desc>Created with Sketch.</desc>
    <defs></defs>
    <g id="Page-1" stroke="none" stroke-width="1" fill="none" fill-rule="evenodd">
        <g id="Artboard" transform="translate(-144.000000, -591.000000)" fill="#2B3445">
            <g id="Group-2" transform="translate(145.000000, 593.000000)">
                <path d="M10.8479983,1.35679729 L19.0437507,14.4700011 C19.336461,14.9383376 19.1940878,15.555288 18.7257513,15.8479983 C18.5668197,15.9473306 18.3831721,16 18.1957524,16 L1.80424764,16 C1.25196289,16 0.804247642,15.5522847 0.804247642,15 C0.804247642,14.8125803 0.856917086,14.6289327 0.956249338,14.4700011 L9.1520017,1.35679729 L9.1520017,1.35679729 C9.44471203,0.888460755 10.0616624,0.74608759 10.5299989,1.03879792 C10.6587681,1.11927863 10.7675176,1.22802815 10.8479983,1.35679729 Z M10,8 C8.18854351,8 6.5699354,8.97312084 5.5,10.5 C6.5699354,12.0268792 8.18854351,13 10,13 C11.8114565,13 13.4300646,12.0268792 14.5,10.5 C13.4300646,8.97312084 11.8114565,8 10,8 Z" id="Combined-Shape"></path>
                <path d="M10.572491,9.11312088 C10.3960845,9.04022174 10.2027394,9 10,9 C9.17157288,9 8.5,9.67157288 8.5,10.5 C8.5,11.3284271 9.17157288,12 10,12 C10.8067513,12 11.4647492,11.3631108 11.4986299,10.5646961 C11.3578119,10.6648565 11.1856011,10.7237549 10.9996338,10.7237549 C10.523632,10.7237549 10.1377563,10.3378792 10.1377563,9.86187744 C10.1377563,9.54129672 10.3127834,9.26159575 10.572491,9.11312088 Z" id="Combined-Shape"></path>
            </g>
        </g>
    </g>
</svg>