<?xml version="1.0" encoding="UTF-8" standalone="no"?>
<svg width="22px" height="22px" viewBox="0 0 22 22" version="1.1" xmlns="http://www.w3.org/2000/svg" xmlns:xlink="http://www.w3.org/1999/xlink">
    <!-- Generator: Sketch 45 (43475) - http://www.bohemiancoding.com/sketch -->
    <title>building-3</title>
    <desc>Created with Sketch.</desc>
    <defs></defs>
    <g id="Page-1" stroke="none" stroke-width="1" fill="none" fill-rule="evenodd">
        <g id="Artboard" transform="translate(-144.000000, -438.000000)" fill="#000000">
            <path d="M162,457 L163.5,457 C163.776142,457 164,457.223858 164,457.5 C164,457.776142 163.776142,458 163.5,458 L146.5,458 C146.223858,458 146,457.776142 146,457.5 C146,457.223858 146.223858,457 146.5,457 L146.5,457 L148,457 L148,442 L148,442 C148,440.895431 148.895431,440 150,440 L150,440 L160,440 C161.104569,440 162,440.895431 162,442 L162,457 Z M151.5,442 C150.671573,442 150,442.671573 150,443.5 C150,444.328427 150.671573,445 151.5,445 L152.5,445 C153.328427,445 154,444.328427 154,443.5 L154,443.5 C154,442.671573 153.328427,442 152.5,442 L151.5,442 Z M157.5,442 C156.671573,442 156,442.671573 156,443.5 C156,444.328427 156.671573,445 157.5,445 L158.5,445 C159.328427,445 160,444.328427 160,443.5 L160,443.5 C160,442.671573 159.328427,442 158.5,442 L157.5,442 Z M157.5,446 C156.671573,446 156,446.671573 156,447.5 C156,448.328427 156.671573,449 157.5,449 L158.5,449 C159.328427,449 160,448.328427 160,447.5 C160,446.671573 159.328427,446 158.5,446 L157.5,446 Z M151.5,446 C150.671573,446 150,446.671573 150,447.5 C150,448.328427 150.671573,449 151.5,449 L152.5,449 C153.328427,449 154,448.328427 154,447.5 C154,446.671573 153.328427,446 152.5,446 L151.5,446 Z M151.5,450 C150.671573,450 150,450.671573 150,451.5 C150,452.328427 150.671573,453 151.5,453 L152.5,453 C153.328427,453 154,452.328427 154,451.5 C154,450.671573 153.328427,450 152.5,450 L151.5,450 Z M157.5,450 C156.671573,450 156,450.671573 156,451.5 C156,452.328427 156.671573,453 157.5,453 L158.5,453 C159.328427,453 160,452.328427 160,451.5 C160,450.671573 159.328427,450 158.5,450 L157.5,450 Z M155,454 C153.895431,454 153,454.895431 153,456 L153,457 L157,457 L157,456 C157,454.895431 156.104569,454 155,454 Z" id="Combined-Shape"></path>
        </g>
    </g>
</svg>