<svg id="Layer_1" data-name="Layer 1" xmlns="http://www.w3.org/2000/svg" width="512" height="512" viewBox="0 0 512 512">
  <defs>
    <style>
      .cls-1 {
        fill: #1b132d;
      }

      .cls-2 {
        fill: #4f3b70;
      }

      .cls-3 {
        fill: #ecb831;
      }

      .cls-4 {
        fill: #ecb934;
      }

      .cls-5 {
        fill: #33264f;
      }
    </style>
  </defs>
  <title>Artboard 1</title>
  <g>
    <polygon class="cls-1" points="400 378.74 400 397.22 384 387.98 400 378.74"/>
    <polygon class="cls-1" points="400 360.27 400 378.74 384 369.5 400 360.27"/>
    <polygon class="cls-1" points="400 341.79 400 360.27 384 351.03 400 341.79"/>
    <polygon class="cls-1" points="400 323.32 400 341.79 384 332.55 400 323.32"/>
    <polygon class="cls-1" points="400 304.84 400 323.32 384 314.08 400 304.84"/>
    <polygon class="cls-1" points="400 286.37 400 304.84 384 295.6 400 286.37"/>
    <polygon class="cls-1" points="400 267.89 400 286.37 384 277.13 400 267.89"/>
    <polygon class="cls-1" points="400 249.42 400 267.89 384 258.65 400 249.42"/>
    <polygon class="cls-1" points="400 230.94 400 249.42 384 240.18 400 230.94"/>
    <polygon class="cls-1" points="400 212.46 400 230.94 384 221.7 400 212.46"/>
    <polygon class="cls-1" points="400 193.99 400 212.46 384 203.23 400 193.99"/>
    <polygon class="cls-1" points="400 175.51 400 193.99 384 184.75 400 175.51"/>
    <polygon class="cls-1" points="400 157.04 400 175.51 384 166.28 400 157.04"/>
    <polygon class="cls-1" points="400 138.56 400 157.04 384 147.8 400 138.56"/>
    <polygon class="cls-1" points="400 120.09 400 138.56 384 129.33 400 120.09"/>
    <polygon class="cls-2" points="400 120.09 384 129.33 384 110.85 400 120.09"/>
    <polygon class="cls-1" points="400 138.56 384 147.8 384 129.33 400 138.56"/>
    <polygon class="cls-1" points="400 157.04 384 166.28 384 147.8 400 157.04"/>
    <polygon class="cls-1" points="400 175.51 384 184.75 384 166.28 400 175.51"/>
    <polygon class="cls-1" points="400 193.99 384 203.23 384 184.75 400 193.99"/>
    <polygon class="cls-1" points="400 212.46 384 221.7 384 203.23 400 212.46"/>
    <polygon class="cls-1" points="400 230.94 384 240.18 384 221.7 400 230.94"/>
    <polygon class="cls-1" points="400 249.42 384 258.65 384 240.18 400 249.42"/>
    <polygon class="cls-1" points="400 267.89 384 277.13 384 258.65 400 267.89"/>
    <polygon class="cls-1" points="400 286.37 384 295.6 384 277.13 400 286.37"/>
    <polygon class="cls-1" points="400 304.84 384 314.08 384 295.6 400 304.84"/>
    <polygon class="cls-1" points="400 323.32 384 332.55 384 314.08 400 323.32"/>
    <polygon class="cls-1" points="400 341.79 384 351.03 384 332.55 400 341.79"/>
    <polygon class="cls-1" points="400 360.27 384 369.5 384 351.03 400 360.27"/>
    <polygon class="cls-1" points="400 378.74 384 387.98 384 369.5 400 378.74"/>
    <polygon class="cls-1" points="400 397.22 384 406.45 384 387.98 400 397.22"/>
    <polygon class="cls-1" points="384 387.98 384 406.45 368 397.22 384 387.98"/>
    <polygon class="cls-1" points="384 369.5 384 387.98 368 378.74 384 369.5"/>
    <polygon class="cls-1" points="384 351.03 384 369.5 368 360.27 384 351.03"/>
    <polygon class="cls-1" points="384 332.55 384 351.03 368 341.79 384 332.55"/>
    <polygon class="cls-1" points="384 314.08 384 332.55 368 323.32 384 314.08"/>
    <polygon class="cls-1" points="384 295.6 384 314.08 368 304.84 384 295.6"/>
    <polygon class="cls-1" points="384 277.13 384 295.6 368 286.37 384 277.13"/>
    <polygon class="cls-1" points="384 258.65 384 277.13 368 267.89 384 258.65"/>
    <polygon class="cls-1" points="384 240.18 384 258.65 368 249.42 384 240.18"/>
    <polygon class="cls-1" points="384 221.7 384 240.18 368 230.94 384 221.7"/>
    <polygon class="cls-1" points="384 203.23 384 221.7 368 212.46 384 203.23"/>
    <polygon class="cls-1" points="384 184.75 384 203.23 368 193.99 384 184.75"/>
    <polygon class="cls-1" points="384 166.28 384 184.75 368 175.51 384 166.28"/>
    <polygon class="cls-1" points="384 147.8 384 166.28 368 157.04 384 147.8"/>
    <polygon class="cls-1" points="384 129.33 384 147.8 368 138.56 384 129.33"/>
    <polygon class="cls-2" points="384 110.85 384 129.33 368 120.09 384 110.85"/>
    <polygon class="cls-2" points="384 110.85 368 120.09 368 101.61 384 110.85"/>
    <polygon class="cls-2" points="384 129.33 368 138.56 368 120.09 384 129.33"/>
    <polygon class="cls-1" points="384 147.8 368 157.04 368 138.56 384 147.8"/>
    <polygon class="cls-1" points="384 166.28 368 175.51 368 157.04 384 166.28"/>
    <polygon class="cls-1" points="384 184.75 368 193.99 368 175.51 384 184.75"/>
    <polygon class="cls-1" points="384 203.23 368 212.46 368 193.99 384 203.23"/>
    <polygon class="cls-1" points="384 221.7 368 230.94 368 212.46 384 221.7"/>
    <polygon class="cls-1" points="384 240.18 368 249.42 368 230.94 384 240.18"/>
    <polygon class="cls-1" points="384 258.65 368 267.89 368 249.42 384 258.65"/>
    <polygon class="cls-1" points="384 277.13 368 286.37 368 267.89 384 277.13"/>
    <polygon class="cls-1" points="384 295.6 368 304.84 368 286.37 384 295.6"/>
    <polygon class="cls-1" points="384 314.08 368 323.32 368 304.84 384 314.08"/>
    <polygon class="cls-1" points="384 332.55 368 341.79 368 323.32 384 332.55"/>
    <polygon class="cls-1" points="384 351.03 368 360.27 368 341.79 384 351.03"/>
    <polygon class="cls-1" points="384 369.5 368 378.74 368 360.27 384 369.5"/>
    <polygon class="cls-1" points="384 387.98 368 397.22 368 378.74 384 387.98"/>
    <polygon class="cls-1" points="384 406.45 368 415.69 368 397.22 384 406.45"/>
    <polygon class="cls-3" points="368 397.22 368 415.69 352 406.45 368 397.22"/>
    <polygon class="cls-3" points="368 378.74 368 397.22 352 387.98 368 378.74"/>
    <polygon class="cls-3" points="368 360.27 368 378.74 352 369.5 368 360.27"/>
    <polygon class="cls-3" points="368 341.79 368 360.27 352 351.03 368 341.79"/>
    <polygon class="cls-1" points="368 323.32 368 341.79 352 332.55 368 323.32"/>
    <polygon class="cls-1" points="368 304.84 368 323.32 352 314.08 368 304.84"/>
    <polygon class="cls-3" points="368 286.37 368 304.84 352 295.6 368 286.37"/>
    <polygon class="cls-3" points="368 267.89 368 286.37 352 277.13 368 267.89"/>
    <polygon class="cls-1" points="368 249.42 368 267.89 352 258.65 368 249.42"/>
    <polygon class="cls-3" points="368 230.94 368 249.42 352 240.18 368 230.94"/>
    <polygon class="cls-3" points="368 212.46 368 230.94 352 221.7 368 212.46"/>
    <polygon class="cls-3" points="368 193.99 368 212.46 352 203.23 368 193.99"/>
    <polygon class="cls-1" points="368 175.51 368 193.99 352 184.75 368 175.51"/>
    <polygon class="cls-1" points="368 157.04 368 175.51 352 166.28 368 157.04"/>
    <polygon class="cls-1" points="368 138.56 368 157.04 352 147.8 368 138.56"/>
    <polygon class="cls-2" points="368 120.09 368 138.56 352 129.33 368 120.09"/>
    <polygon class="cls-2" points="368 101.61 368 120.09 352 110.85 368 101.61"/>
    <polygon class="cls-2" points="368 101.61 352 110.85 352 92.38 368 101.61"/>
    <polygon class="cls-2" points="368 120.09 352 129.33 352 110.85 368 120.09"/>
    <polygon class="cls-2" points="368 138.56 352 147.8 352 129.33 368 138.56"/>
    <polygon class="cls-1" points="368 157.04 352 166.28 352 147.8 368 157.04"/>
    <polygon class="cls-1" points="368 175.51 352 184.75 352 166.28 368 175.51"/>
    <polygon class="cls-1" points="368 193.99 352 203.23 352 184.75 368 193.99"/>
    <polygon class="cls-3" points="368 212.46 352 221.7 352 203.23 368 212.46"/>
    <polygon class="cls-3" points="368 230.94 352 240.18 352 221.7 368 230.94"/>
    <polygon class="cls-3" points="368 249.42 352 258.65 352 240.18 368 249.42"/>
    <polygon class="cls-1" points="368 267.89 352 277.13 352 258.65 368 267.89"/>
    <polygon class="cls-3" points="368 286.37 352 295.6 352 277.13 368 286.37"/>
    <polygon class="cls-3" points="368 304.84 352 314.08 352 295.6 368 304.84"/>
    <polygon class="cls-1" points="368 323.32 352 332.55 352 314.08 368 323.32"/>
    <polygon class="cls-1" points="368 341.79 352 351.03 352 332.55 368 341.79"/>
    <polygon class="cls-3" points="368 360.27 352 369.5 352 351.03 368 360.27"/>
    <polygon class="cls-3" points="368 378.74 352 387.98 352 369.5 368 378.74"/>
    <polygon class="cls-3" points="368 397.22 352 406.45 352 387.98 368 397.22"/>
    <polygon class="cls-3" points="368 415.69 352 424.93 352 406.45 368 415.69"/>
    <polygon class="cls-3" points="352 406.45 352 424.93 336 415.69 352 406.45"/>
    <polygon class="cls-3" points="352 387.98 352 406.45 336 397.22 352 387.98"/>
    <polygon class="cls-3" points="352 369.5 352 387.98 336 378.74 352 369.5"/>
    <polygon class="cls-3" points="352 351.03 352 369.5 336 360.27 352 351.03"/>
    <polygon class="cls-1" points="352 332.55 352 351.03 336 341.79 352 332.55"/>
    <polygon class="cls-1" points="352 314.08 352 332.55 336 323.32 352 314.08"/>
    <polygon class="cls-3" points="352 295.6 352 314.08 336 304.84 352 295.6"/>
    <polygon class="cls-3" points="352 277.13 352 295.6 336 286.37 352 277.13"/>
    <polygon class="cls-1" points="352 258.65 352 277.13 336 267.89 352 258.65"/>
    <polygon class="cls-3" points="352 240.18 352 258.65 336 249.42 352 240.18"/>
    <polygon class="cls-3" points="352 221.7 352 240.18 336 230.94 352 221.7"/>
    <polygon class="cls-3" points="352 203.23 352 221.7 336 212.46 352 203.23"/>
    <polygon class="cls-1" points="352 184.75 352 203.23 336 193.99 352 184.75"/>
    <polygon class="cls-1" points="352 166.28 352 184.75 336 175.51 352 166.28"/>
    <polygon class="cls-1" points="352 147.8 352 166.28 336 157.04 352 147.8"/>
    <polygon class="cls-2" points="352 129.33 352 147.8 336 138.56 352 129.33"/>
    <polygon class="cls-2" points="352 110.85 352 129.33 336 120.09 352 110.85"/>
    <polygon class="cls-2" points="352 92.38 352 110.85 336 101.61 352 92.38"/>
    <polygon class="cls-2" points="352 92.38 336 101.61 336 83.14 352 92.38"/>
    <polygon class="cls-2" points="352 110.85 336 120.09 336 101.61 352 110.85"/>
    <polygon class="cls-2" points="352 129.33 336 138.56 336 120.09 352 129.33"/>
    <polygon class="cls-2" points="352 147.8 336 157.04 336 138.56 352 147.8"/>
    <polygon class="cls-1" points="352 166.28 336 175.51 336 157.04 352 166.28"/>
    <polygon class="cls-1" points="352 184.75 336 193.99 336 175.51 352 184.75"/>
    <polygon class="cls-1" points="352 203.23 336 212.46 336 193.99 352 203.23"/>
    <polygon class="cls-3" points="352 221.7 336 230.94 336 212.46 352 221.7"/>
    <polygon class="cls-3" points="352 240.18 336 249.42 336 230.94 352 240.18"/>
    <polygon class="cls-3" points="352 258.65 336 267.89 336 249.42 352 258.65"/>
    <polygon class="cls-1" points="352 277.13 336 286.37 336 267.89 352 277.13"/>
    <polygon class="cls-3" points="352 295.6 336 304.84 336 286.37 352 295.6"/>
    <polygon class="cls-3" points="352 314.08 336 323.32 336 304.84 352 314.08"/>
    <polygon class="cls-1" points="352 332.55 336 341.79 336 323.32 352 332.55"/>
    <polygon class="cls-1" points="352 351.03 336 360.27 336 341.79 352 351.03"/>
    <polygon class="cls-3" points="352 369.5 336 378.74 336 360.27 352 369.5"/>
    <polygon class="cls-3" points="352 387.98 336 397.22 336 378.74 352 387.98"/>
    <polygon class="cls-3" points="352 406.45 336 415.69 336 397.22 352 406.45"/>
    <polygon class="cls-3" points="352 424.93 336 434.17 336 415.69 352 424.93"/>
    <polygon class="cls-4" points="336 415.69 336 434.17 320 424.93 336 415.69"/>
    <polygon class="cls-4" points="336 397.22 336 415.69 320 406.45 336 397.22"/>
    <polygon class="cls-4" points="336 378.74 336 397.22 320 387.98 336 378.74"/>
    <polygon class="cls-4" points="336 360.27 336 378.74 320 369.5 336 360.27"/>
    <polygon class="cls-1" points="336 341.79 336 360.27 320 351.03 336 341.79"/>
    <polygon class="cls-1" points="336 323.32 336 341.79 320 332.55 336 323.32"/>
    <polygon class="cls-1" points="336 304.84 336 323.32 320 314.08 336 304.84"/>
    <polygon class="cls-1" points="336 286.37 336 304.84 320 295.6 336 286.37"/>
    <polygon class="cls-1" points="336 267.89 336 286.37 320 277.13 336 267.89"/>
    <polygon class="cls-1" points="336 249.42 336 267.89 320 258.65 336 249.42"/>
    <polygon class="cls-1" points="336 230.94 336 249.42 320 240.18 336 230.94"/>
    <polygon class="cls-1" points="336 212.46 336 230.94 320 221.7 336 212.46"/>
    <polygon class="cls-1" points="336 193.99 336 212.46 320 203.23 336 193.99"/>
    <polygon class="cls-1" points="336 175.51 336 193.99 320 184.75 336 175.51"/>
    <polygon class="cls-1" points="336 157.04 336 175.51 320 166.28 336 157.04"/>
    <polygon class="cls-2" points="336 138.56 336 157.04 320 147.8 336 138.56"/>
    <polygon class="cls-2" points="336 120.09 336 138.56 320 129.33 336 120.09"/>
    <polygon class="cls-2" points="336 101.61 336 120.09 320 110.85 336 101.61"/>
    <polygon class="cls-2" points="336 83.14 336 101.61 320 92.38 336 83.14"/>
    <polygon class="cls-2" points="336 83.14 320 92.38 320 73.9 336 83.14"/>
    <polygon class="cls-2" points="336 101.61 320 110.85 320 92.38 336 101.61"/>
    <polygon class="cls-2" points="336 120.09 320 129.33 320 110.85 336 120.09"/>
    <polygon class="cls-2" points="336 138.56 320 147.8 320 129.33 336 138.56"/>
    <polygon class="cls-2" points="336 157.04 320 166.28 320 147.8 336 157.04"/>
    <polygon class="cls-1" points="336 175.51 320 184.75 320 166.28 336 175.51"/>
    <polygon class="cls-1" points="336 193.99 320 203.23 320 184.75 336 193.99"/>
    <polygon class="cls-1" points="336 212.46 320 221.7 320 203.23 336 212.46"/>
    <polygon class="cls-1" points="336 230.94 320 240.18 320 221.7 336 230.94"/>
    <polygon class="cls-1" points="336 249.42 320 258.65 320 240.18 336 249.42"/>
    <polygon class="cls-1" points="336 267.89 320 277.13 320 258.65 336 267.89"/>
    <polygon class="cls-1" points="336 286.37 320 295.6 320 277.13 336 286.37"/>
    <polygon class="cls-1" points="336 304.84 320 314.08 320 295.6 336 304.84"/>
    <polygon class="cls-1" points="336 323.32 320 332.55 320 314.08 336 323.32"/>
    <polygon class="cls-1" points="336 341.79 320 351.03 320 332.55 336 341.79"/>
    <polygon class="cls-1" points="336 360.27 320 369.5 320 351.03 336 360.27"/>
    <polygon class="cls-4" points="336 378.74 320 387.98 320 369.5 336 378.74"/>
    <polygon class="cls-4" points="336 397.22 320 406.45 320 387.98 336 397.22"/>
    <polygon class="cls-4" points="336 415.69 320 424.93 320 406.45 336 415.69"/>
    <polygon class="cls-4" points="336 434.17 320 443.41 320 424.93 336 434.17"/>
    <polygon class="cls-4" points="320 424.93 320 443.41 304 434.17 320 424.93"/>
    <polygon class="cls-4" points="320 406.45 320 424.93 304 415.69 320 406.45"/>
    <polygon class="cls-4" points="320 387.98 320 406.45 304 397.22 320 387.98"/>
    <polygon class="cls-4" points="320 369.5 320 387.98 304 378.74 320 369.5"/>
    <polygon class="cls-1" points="320 351.03 320 369.5 304 360.27 320 351.03"/>
    <polygon class="cls-1" points="320 332.55 320 351.03 304 341.79 320 332.55"/>
    <polygon class="cls-4" points="320 314.08 320 332.55 304 323.32 320 314.08"/>
    <polygon class="cls-4" points="320 295.6 320 314.08 304 304.84 320 295.6"/>
    <polygon class="cls-1" points="320 277.13 320 295.6 304 286.37 320 277.13"/>
    <polygon class="cls-4" points="320 258.65 320 277.13 304 267.89 320 258.65"/>
    <polygon class="cls-4" points="320 240.18 320 258.65 304 249.42 320 240.18"/>
    <polygon class="cls-4" points="320 221.7 320 240.18 304 230.94 320 221.7"/>
    <polygon class="cls-1" points="320 203.23 320 221.7 304 212.46 320 203.23"/>
    <polygon class="cls-1" points="320 184.75 320 203.23 304 193.99 320 184.75"/>
    <polygon class="cls-1" points="320 166.28 320 184.75 304 175.51 320 166.28"/>
    <polygon class="cls-2" points="320 147.8 320 166.28 304 157.04 320 147.8"/>
    <polygon class="cls-2" points="320 129.33 320 147.8 304 138.56 320 129.33"/>
    <polygon class="cls-2" points="320 110.85 320 129.33 304 120.09 320 110.85"/>
    <polygon class="cls-2" points="320 92.38 320 110.85 304 101.61 320 92.38"/>
    <polygon class="cls-2" points="320 73.9 320 92.38 304 83.14 320 73.9"/>
    <polygon class="cls-2" points="320 73.9 304 83.14 304 64.66 320 73.9"/>
    <polygon class="cls-2" points="320 92.38 304 101.61 304 83.14 320 92.38"/>
    <polygon class="cls-2" points="320 110.85 304 120.09 304 101.61 320 110.85"/>
    <polygon class="cls-2" points="320 129.33 304 138.56 304 120.09 320 129.33"/>
    <polygon class="cls-2" points="320 147.8 304 157.04 304 138.56 320 147.8"/>
    <polygon class="cls-2" points="320 166.28 304 175.51 304 157.04 320 166.28"/>
    <polygon class="cls-1" points="320 184.75 304 193.99 304 175.51 320 184.75"/>
    <polygon class="cls-1" points="320 203.23 304 212.46 304 193.99 320 203.23"/>
    <polygon class="cls-1" points="320 221.7 304 230.94 304 212.46 320 221.7"/>
    <polygon class="cls-4" points="320 240.18 304 249.42 304 230.94 320 240.18"/>
    <polygon class="cls-4" points="320 258.65 304 267.89 304 249.42 320 258.65"/>
    <polygon class="cls-4" points="320 277.13 304 286.37 304 267.89 320 277.13"/>
    <polygon class="cls-1" points="320 295.6 304 304.84 304 286.37 320 295.6"/>
    <polygon class="cls-4" points="320 314.08 304 323.32 304 304.84 320 314.08"/>
    <polygon class="cls-4" points="320 332.55 304 341.79 304 323.32 320 332.55"/>
    <polygon class="cls-1" points="320 351.03 304 360.27 304 341.79 320 351.03"/>
    <polygon class="cls-1" points="320 369.5 304 378.74 304 360.27 320 369.5"/>
    <polygon class="cls-4" points="320 387.98 304 397.22 304 378.74 320 387.98"/>
    <polygon class="cls-4" points="320 406.45 304 415.69 304 397.22 320 406.45"/>
    <polygon class="cls-4" points="320 424.93 304 434.17 304 415.69 320 424.93"/>
    <polygon class="cls-4" points="320 443.41 304 452.64 304 434.17 320 443.41"/>
    <polygon class="cls-4" points="304 434.17 304 452.64 288 443.41 304 434.17"/>
    <polygon class="cls-4" points="304 415.69 304 434.17 288 424.93 304 415.69"/>
    <polygon class="cls-4" points="304 397.22 304 415.69 288 406.45 304 397.22"/>
    <polygon class="cls-4" points="304 378.74 304 397.22 288 387.98 304 378.74"/>
    <polygon class="cls-1" points="304 360.27 304 378.74 288 369.5 304 360.27"/>
    <polygon class="cls-1" points="304 341.79 304 360.27 288 351.03 304 341.79"/>
    <polygon class="cls-4" points="304 323.32 304 341.79 288 332.55 304 323.32"/>
    <polygon class="cls-4" points="304 304.84 304 323.32 288 314.08 304 304.84"/>
    <polygon class="cls-1" points="304 286.37 304 304.84 288 295.6 304 286.37"/>
    <polygon class="cls-4" points="304 267.89 304 286.37 288 277.13 304 267.89"/>
    <polygon class="cls-4" points="304 249.42 304 267.89 288 258.65 304 249.42"/>
    <polygon class="cls-4" points="304 230.94 304 249.42 288 240.18 304 230.94"/>
    <polygon class="cls-1" points="304 212.46 304 230.94 288 221.7 304 212.46"/>
    <polygon class="cls-1" points="304 193.99 304 212.46 288 203.23 304 193.99"/>
    <polygon class="cls-1" points="304 175.51 304 193.99 288 184.75 304 175.51"/>
    <polygon class="cls-2" points="304 157.04 304 175.51 288 166.28 304 157.04"/>
    <polygon class="cls-2" points="304 138.56 304 157.04 288 147.8 304 138.56"/>
    <polygon class="cls-2" points="304 120.09 304 138.56 288 129.33 304 120.09"/>
    <polygon class="cls-2" points="304 101.61 304 120.09 288 110.85 304 101.61"/>
    <polygon class="cls-2" points="304 83.14 304 101.61 288 92.38 304 83.14"/>
    <polygon class="cls-2" points="304 64.66 304 83.14 288 73.9 304 64.66"/>
    <polygon class="cls-2" points="304 64.66 288 73.9 288 55.43 304 64.66"/>
    <polygon class="cls-2" points="304 83.14 288 92.38 288 73.9 304 83.14"/>
    <polygon class="cls-2" points="304 101.61 288 110.85 288 92.38 304 101.61"/>
    <polygon class="cls-2" points="304 120.09 288 129.33 288 110.85 304 120.09"/>
    <polygon class="cls-2" points="304 138.56 288 147.8 288 129.33 304 138.56"/>
    <polygon class="cls-2" points="304 157.04 288 166.28 288 147.8 304 157.04"/>
    <polygon class="cls-2" points="304 175.51 288 184.75 288 166.28 304 175.51"/>
    <polygon class="cls-1" points="304 193.99 288 203.23 288 184.75 304 193.99"/>
    <polygon class="cls-1" points="304 212.46 288 221.7 288 203.23 304 212.46"/>
    <polygon class="cls-1" points="304 230.94 288 240.18 288 221.7 304 230.94"/>
    <polygon class="cls-4" points="304 249.42 288 258.65 288 240.18 304 249.42"/>
    <polygon class="cls-4" points="304 267.89 288 277.13 288 258.65 304 267.89"/>
    <polygon class="cls-4" points="304 286.37 288 295.6 288 277.13 304 286.37"/>
    <polygon class="cls-1" points="304 304.84 288 314.08 288 295.6 304 304.84"/>
    <polygon class="cls-4" points="304 323.32 288 332.55 288 314.08 304 323.32"/>
    <polygon class="cls-4" points="304 341.79 288 351.03 288 332.55 304 341.79"/>
    <polygon class="cls-1" points="304 360.27 288 369.5 288 351.03 304 360.27"/>
    <polygon class="cls-1" points="304 378.74 288 387.98 288 369.5 304 378.74"/>
    <polygon class="cls-4" points="304 397.22 288 406.45 288 387.98 304 397.22"/>
    <polygon class="cls-4" points="304 415.69 288 424.93 288 406.45 304 415.69"/>
    <polygon class="cls-4" points="304 434.17 288 443.41 288 424.93 304 434.17"/>
    <polygon class="cls-4" points="304 452.64 288 461.88 288 443.41 304 452.64"/>
    <polygon class="cls-1" points="288 443.41 288 461.88 272 452.64 288 443.41"/>
    <polygon class="cls-1" points="288 424.93 288 443.41 272 434.17 288 424.93"/>
    <polygon class="cls-1" points="288 406.45 288 424.93 272 415.69 288 406.45"/>
    <polygon class="cls-1" points="288 387.98 288 406.45 272 397.22 288 387.98"/>
    <polygon class="cls-1" points="288 369.5 288 387.98 272 378.74 288 369.5"/>
    <polygon class="cls-1" points="288 351.03 288 369.5 272 360.27 288 351.03"/>
    <polygon class="cls-1" points="288 332.55 288 351.03 272 341.79 288 332.55"/>
    <polygon class="cls-1" points="288 314.08 288 332.55 272 323.32 288 314.08"/>
    <polygon class="cls-1" points="288 295.6 288 314.08 272 304.84 288 295.6"/>
    <polygon class="cls-1" points="288 277.13 288 295.6 272 286.37 288 277.13"/>
    <polygon class="cls-1" points="288 258.65 288 277.13 272 267.89 288 258.65"/>
    <polygon class="cls-1" points="288 240.18 288 258.65 272 249.42 288 240.18"/>
    <polygon class="cls-1" points="288 221.7 288 240.18 272 230.94 288 221.7"/>
    <polygon class="cls-1" points="288 203.23 288 221.7 272 212.46 288 203.23"/>
    <polygon class="cls-1" points="288 184.75 288 203.23 272 193.99 288 184.75"/>
    <polygon class="cls-2" points="288 166.28 288 184.75 272 175.51 288 166.28"/>
    <polygon class="cls-2" points="288 147.8 288 166.28 272 157.04 288 147.8"/>
    <polygon class="cls-2" points="288 129.33 288 147.8 272 138.56 288 129.33"/>
    <polygon class="cls-2" points="288 110.85 288 129.33 272 120.09 288 110.85"/>
    <polygon class="cls-2" points="288 92.38 288 110.85 272 101.61 288 92.38"/>
    <polygon class="cls-2" points="288 73.9 288 92.38 272 83.14 288 73.9"/>
    <polygon class="cls-2" points="288 55.43 288 73.9 272 64.66 288 55.43"/>
    <polygon class="cls-2" points="288 55.43 272 64.66 272 46.19 288 55.43"/>
    <polygon class="cls-2" points="288 73.9 272 83.14 272 64.66 288 73.9"/>
    <polygon class="cls-2" points="288 92.38 272 101.61 272 83.14 288 92.38"/>
    <polygon class="cls-2" points="288 110.85 272 120.09 272 101.61 288 110.85"/>
    <polygon class="cls-2" points="288 129.33 272 138.56 272 120.09 288 129.33"/>
    <polygon class="cls-2" points="288 147.8 272 157.04 272 138.56 288 147.8"/>
    <polygon class="cls-2" points="288 166.28 272 175.51 272 157.04 288 166.28"/>
    <polygon class="cls-2" points="288 184.75 272 193.99 272 175.51 288 184.75"/>
    <polygon class="cls-1" points="288 203.23 272 212.46 272 193.99 288 203.23"/>
    <polygon class="cls-1" points="288 221.7 272 230.94 272 212.46 288 221.7"/>
    <polygon class="cls-1" points="288 240.18 272 249.42 272 230.94 288 240.18"/>
    <polygon class="cls-1" points="288 258.65 272 267.89 272 249.42 288 258.65"/>
    <polygon class="cls-1" points="288 277.13 272 286.37 272 267.89 288 277.13"/>
    <polygon class="cls-1" points="288 295.6 272 304.84 272 286.37 288 295.6"/>
    <polygon class="cls-1" points="288 314.08 272 323.32 272 304.84 288 314.08"/>
    <polygon class="cls-1" points="288 332.55 272 341.79 272 323.32 288 332.55"/>
    <polygon class="cls-1" points="288 351.03 272 360.27 272 341.79 288 351.03"/>
    <polygon class="cls-1" points="288 369.5 272 378.74 272 360.27 288 369.5"/>
    <polygon class="cls-1" points="288 387.98 272 397.22 272 378.74 288 387.98"/>
    <polygon class="cls-1" points="288 406.45 272 415.69 272 397.22 288 406.45"/>
    <polygon class="cls-1" points="288 424.93 272 434.17 272 415.69 288 424.93"/>
    <polygon class="cls-1" points="288 443.41 272 452.64 272 434.17 288 443.41"/>
    <polygon class="cls-1" points="288 461.88 272 471.12 272 452.64 288 461.88"/>
    <polygon class="cls-1" points="272 452.64 272 471.12 256 461.88 272 452.64"/>
    <polygon class="cls-1" points="272 434.17 272 452.64 256 443.41 272 434.17"/>
    <polygon class="cls-1" points="272 415.69 272 434.17 256 424.93 272 415.69"/>
    <polygon class="cls-1" points="272 397.22 272 415.69 256 406.45 272 397.22"/>
    <polygon class="cls-1" points="272 378.74 272 397.22 256 387.98 272 378.74"/>
    <polygon class="cls-1" points="272 360.27 272 378.74 256 369.5 272 360.27"/>
    <polygon class="cls-1" points="272 341.79 272 360.27 256 351.03 272 341.79"/>
    <polygon class="cls-1" points="272 323.32 272 341.79 256 332.55 272 323.32"/>
    <polygon class="cls-1" points="272 304.84 272 323.32 256 314.08 272 304.84"/>
    <polygon class="cls-1" points="272 286.37 272 304.84 256 295.6 272 286.37"/>
    <polygon class="cls-1" points="272 267.89 272 286.37 256 277.13 272 267.89"/>
    <polygon class="cls-1" points="272 249.42 272 267.89 256 258.65 272 249.42"/>
    <polygon class="cls-1" points="272 230.94 272 249.42 256 240.18 272 230.94"/>
    <polygon class="cls-1" points="272 212.46 272 230.94 256 221.7 272 212.46"/>
    <polygon class="cls-1" points="272 193.99 272 212.46 256 203.23 272 193.99"/>
    <polygon class="cls-2" points="272 175.51 272 193.99 256 184.75 272 175.51"/>
    <polygon class="cls-2" points="272 157.04 272 175.51 256 166.28 272 157.04"/>
    <polygon class="cls-2" points="272 138.56 272 157.04 256 147.8 272 138.56"/>
    <polygon class="cls-2" points="272 120.09 272 138.56 256 129.33 272 120.09"/>
    <polygon class="cls-2" points="272 101.61 272 120.09 256 110.85 272 101.61"/>
    <polygon class="cls-2" points="272 83.14 272 101.61 256 92.38 272 83.14"/>
    <polygon class="cls-2" points="272 64.66 272 83.14 256 73.9 272 64.66"/>
    <polygon class="cls-2" points="272 46.19 272 64.66 256 55.43 272 46.19"/>
    <polygon class="cls-2" points="272 46.19 256 55.43 256 36.95 272 46.19"/>
    <polygon class="cls-2" points="272 64.66 256 73.9 256 55.43 272 64.66"/>
    <polygon class="cls-2" points="272 83.14 256 92.38 256 73.9 272 83.14"/>
    <polygon class="cls-2" points="272 101.61 256 110.85 256 92.38 272 101.61"/>
    <polygon class="cls-2" points="272 120.09 256 129.33 256 110.85 272 120.09"/>
    <polygon class="cls-2" points="272 138.56 256 147.8 256 129.33 272 138.56"/>
    <polygon class="cls-2" points="272 157.04 256 166.28 256 147.8 272 157.04"/>
    <polygon class="cls-2" points="272 175.51 256 184.75 256 166.28 272 175.51"/>
    <polygon class="cls-2" points="272 193.99 256 203.23 256 184.75 272 193.99"/>
    <polygon class="cls-1" points="272 212.46 256 221.7 256 203.23 272 212.46"/>
    <polygon class="cls-1" points="272 230.94 256 240.18 256 221.7 272 230.94"/>
    <polygon class="cls-1" points="272 249.42 256 258.65 256 240.18 272 249.42"/>
    <polygon class="cls-1" points="272 267.89 256 277.13 256 258.65 272 267.89"/>
    <polygon class="cls-1" points="272 286.37 256 295.6 256 277.13 272 286.37"/>
    <polygon class="cls-1" points="272 304.84 256 314.08 256 295.6 272 304.84"/>
    <polygon class="cls-1" points="272 323.32 256 332.55 256 314.08 272 323.32"/>
    <polygon class="cls-1" points="272 341.79 256 351.03 256 332.55 272 341.79"/>
    <polygon class="cls-1" points="272 360.27 256 369.5 256 351.03 272 360.27"/>
    <polygon class="cls-1" points="272 378.74 256 387.98 256 369.5 272 378.74"/>
    <polygon class="cls-1" points="272 397.22 256 406.45 256 387.98 272 397.22"/>
    <polygon class="cls-1" points="272 415.69 256 424.93 256 406.45 272 415.69"/>
    <polygon class="cls-1" points="272 434.17 256 443.41 256 424.93 272 434.17"/>
    <polygon class="cls-1" points="272 452.64 256 461.88 256 443.41 272 452.64"/>
    <polygon class="cls-1" points="272 471.12 256 480.36 256 461.88 272 471.12"/>
    <polygon class="cls-1" points="256 461.88 256 480.36 240 471.12 256 461.88"/>
    <polygon class="cls-1" points="256 443.41 256 461.88 240 452.64 256 443.41"/>
    <polygon class="cls-1" points="256 424.93 256 443.41 240 434.17 256 424.93"/>
    <polygon class="cls-1" points="256 406.45 256 424.93 240 415.69 256 406.45"/>
    <polygon class="cls-1" points="256 387.98 256 406.45 240 397.22 256 387.98"/>
    <polygon class="cls-1" points="256 369.5 256 387.98 240 378.74 256 369.5"/>
    <polygon class="cls-1" points="256 351.03 256 369.5 240 360.27 256 351.03"/>
    <polygon class="cls-1" points="256 332.55 256 351.03 240 341.79 256 332.55"/>
    <polygon class="cls-1" points="256 314.08 256 332.55 240 323.32 256 314.08"/>
    <polygon class="cls-1" points="256 295.6 256 314.08 240 304.84 256 295.6"/>
    <polygon class="cls-1" points="256 277.13 256 295.6 240 286.37 256 277.13"/>
    <polygon class="cls-1" points="256 258.65 256 277.13 240 267.89 256 258.65"/>
    <polygon class="cls-1" points="256 240.18 256 258.65 240 249.42 256 240.18"/>
    <polygon class="cls-1" points="256 221.7 256 240.18 240 230.94 256 221.7"/>
    <polygon class="cls-1" points="256 203.23 256 221.7 240 212.46 256 203.23"/>
    <polygon class="cls-2" points="256 184.75 256 203.23 240 193.99 256 184.75"/>
    <polygon class="cls-2" points="256 166.28 256 184.75 240 175.51 256 166.28"/>
    <polygon class="cls-2" points="256 147.8 256 166.28 240 157.04 256 147.8"/>
    <polygon class="cls-2" points="256 129.33 256 147.8 240 138.56 256 129.33"/>
    <polygon class="cls-2" points="256 110.85 256 129.33 240 120.09 256 110.85"/>
    <polygon class="cls-2" points="256 92.38 256 110.85 240 101.61 256 92.38"/>
    <polygon class="cls-2" points="256 73.9 256 92.38 240 83.14 256 73.9"/>
    <polygon class="cls-2" points="256 55.43 256 73.9 240 64.66 256 55.43"/>
    <polygon class="cls-2" points="256 36.95 256 55.43 240 46.19 256 36.95"/>
    <polygon class="cls-2" points="256 36.95 240 46.19 240 27.71 256 36.95"/>
    <polygon class="cls-2" points="256 55.43 240 64.66 240 46.19 256 55.43"/>
    <polygon class="cls-2" points="256 73.9 240 83.14 240 64.66 256 73.9"/>
    <polygon class="cls-2" points="256 92.38 240 101.61 240 83.14 256 92.38"/>
    <polygon class="cls-2" points="256 110.85 240 120.09 240 101.61 256 110.85"/>
    <polygon class="cls-2" points="256 129.33 240 138.56 240 120.09 256 129.33"/>
    <polygon class="cls-2" points="256 147.8 240 157.04 240 138.56 256 147.8"/>
    <polygon class="cls-2" points="256 166.28 240 175.51 240 157.04 256 166.28"/>
    <polygon class="cls-2" points="256 184.75 240 193.99 240 175.51 256 184.75"/>
    <polygon class="cls-2" points="256 203.23 240 212.46 240 193.99 256 203.23"/>
    <polygon class="cls-1" points="256 221.7 240 230.94 240 212.46 256 221.7"/>
    <polygon class="cls-1" points="256 240.18 240 249.42 240 230.94 256 240.18"/>
    <polygon class="cls-1" points="256 258.65 240 267.89 240 249.42 256 258.65"/>
    <polygon class="cls-1" points="256 277.13 240 286.37 240 267.89 256 277.13"/>
    <polygon class="cls-1" points="256 295.6 240 304.84 240 286.37 256 295.6"/>
    <polygon class="cls-1" points="256 314.08 240 323.32 240 304.84 256 314.08"/>
    <polygon class="cls-1" points="256 332.55 240 341.79 240 323.32 256 332.55"/>
    <polygon class="cls-1" points="256 351.03 240 360.27 240 341.79 256 351.03"/>
    <polygon class="cls-1" points="256 369.5 240 378.74 240 360.27 256 369.5"/>
    <polygon class="cls-1" points="256 387.98 240 397.22 240 378.74 256 387.98"/>
    <polygon class="cls-1" points="256 406.45 240 415.69 240 397.22 256 406.45"/>
    <polygon class="cls-1" points="256 424.93 240 434.17 240 415.69 256 424.93"/>
    <polygon class="cls-1" points="256 443.41 240 452.64 240 434.17 256 443.41"/>
    <polygon class="cls-1" points="256 461.88 240 471.12 240 452.64 256 461.88"/>
    <polygon class="cls-1" points="256 480.36 240 489.59 240 471.12 256 480.36"/>
    <polygon class="cls-5" points="240 471.12 240 489.59 224 480.36 240 471.12"/>
    <polygon class="cls-5" points="240 452.64 240 471.12 224 461.88 240 452.64"/>
    <polygon class="cls-5" points="240 434.17 240 452.64 224 443.41 240 434.17"/>
    <polygon class="cls-5" points="240 415.69 240 434.17 224 424.93 240 415.69"/>
    <polygon class="cls-5" points="240 397.22 240 415.69 224 406.45 240 397.22"/>
    <polygon class="cls-5" points="240 378.74 240 397.22 224 387.98 240 378.74"/>
    <polygon class="cls-5" points="240 360.27 240 378.74 224 369.5 240 360.27"/>
    <polygon class="cls-5" points="240 341.79 240 360.27 224 351.03 240 341.79"/>
    <polygon class="cls-5" points="240 323.32 240 341.79 224 332.55 240 323.32"/>
    <polygon class="cls-5" points="240 304.84 240 323.32 224 314.08 240 304.84"/>
    <polygon class="cls-5" points="240 286.37 240 304.84 224 295.6 240 286.37"/>
    <polygon class="cls-5" points="240 267.89 240 286.37 224 277.13 240 267.89"/>
    <polygon class="cls-5" points="240 249.42 240 267.89 224 258.65 240 249.42"/>
    <polygon class="cls-5" points="240 230.94 240 249.42 224 240.18 240 230.94"/>
    <polygon class="cls-5" points="240 212.46 240 230.94 224 221.7 240 212.46"/>
    <polygon class="cls-2" points="240 193.99 240 212.46 224 203.23 240 193.99"/>
    <polygon class="cls-2" points="240 175.51 240 193.99 224 184.75 240 175.51"/>
    <polygon class="cls-2" points="240 157.04 240 175.51 224 166.28 240 157.04"/>
    <polygon class="cls-2" points="240 138.56 240 157.04 224 147.8 240 138.56"/>
    <polygon class="cls-2" points="240 120.09 240 138.56 224 129.33 240 120.09"/>
    <polygon class="cls-2" points="240 101.61 240 120.09 224 110.85 240 101.61"/>
    <polygon class="cls-2" points="240 83.14 240 101.61 224 92.38 240 83.14"/>
    <polygon class="cls-2" points="240 64.66 240 83.14 224 73.9 240 64.66"/>
    <polygon class="cls-2" points="240 46.19 240 64.66 224 55.43 240 46.19"/>
    <polygon class="cls-2" points="240 27.71 240 46.19 224 36.95 240 27.71"/>
    <polygon class="cls-2" points="240 46.19 224 55.43 224 36.95 240 46.19"/>
    <polygon class="cls-2" points="240 64.66 224 73.9 224 55.43 240 64.66"/>
    <polygon class="cls-2" points="240 83.14 224 92.38 224 73.9 240 83.14"/>
    <polygon class="cls-2" points="240 101.61 224 110.85 224 92.38 240 101.61"/>
    <polygon class="cls-2" points="240 120.09 224 129.33 224 110.85 240 120.09"/>
    <polygon class="cls-2" points="240 138.56 224 147.8 224 129.33 240 138.56"/>
    <polygon class="cls-2" points="240 157.04 224 166.28 224 147.8 240 157.04"/>
    <polygon class="cls-2" points="240 175.51 224 184.75 224 166.28 240 175.51"/>
    <polygon class="cls-2" points="240 193.99 224 203.23 224 184.75 240 193.99"/>
    <polygon class="cls-5" points="240 212.46 224 221.7 224 203.23 240 212.46"/>
    <polygon class="cls-5" points="240 230.94 224 240.18 224 221.7 240 230.94"/>
    <polygon class="cls-5" points="240 249.42 224 258.65 224 240.18 240 249.42"/>
    <polygon class="cls-5" points="240 267.89 224 277.13 224 258.65 240 267.89"/>
    <polygon class="cls-5" points="240 286.37 224 295.6 224 277.13 240 286.37"/>
    <polygon class="cls-5" points="240 304.84 224 314.08 224 295.6 240 304.84"/>
    <polygon class="cls-5" points="240 323.32 224 332.55 224 314.08 240 323.32"/>
    <polygon class="cls-5" points="240 341.79 224 351.03 224 332.55 240 341.79"/>
    <polygon class="cls-5" points="240 360.27 224 369.5 224 351.03 240 360.27"/>
    <polygon class="cls-5" points="240 378.74 224 387.98 224 369.5 240 378.74"/>
    <polygon class="cls-5" points="240 397.22 224 406.45 224 387.98 240 397.22"/>
    <polygon class="cls-5" points="240 415.69 224 424.93 224 406.45 240 415.69"/>
    <polygon class="cls-5" points="240 434.17 224 443.41 224 424.93 240 434.17"/>
    <polygon class="cls-5" points="240 452.64 224 461.88 224 443.41 240 452.64"/>
    <polygon class="cls-5" points="240 471.12 224 480.36 224 461.88 240 471.12"/>
    <polygon class="cls-5" points="224 461.88 224 480.36 208 471.12 224 461.88"/>
    <polygon class="cls-5" points="224 443.41 224 461.88 208 452.64 224 443.41"/>
    <polygon class="cls-5" points="224 424.93 224 443.41 208 434.17 224 424.93"/>
    <polygon class="cls-5" points="224 406.45 224 424.93 208 415.69 224 406.45"/>
    <polygon class="cls-5" points="224 387.98 224 406.45 208 397.22 224 387.98"/>
    <polygon class="cls-5" points="224 369.5 224 387.98 208 378.74 224 369.5"/>
    <polygon class="cls-5" points="224 351.03 224 369.5 208 360.27 224 351.03"/>
    <polygon class="cls-5" points="224 332.55 224 351.03 208 341.79 224 332.55"/>
    <polygon class="cls-5" points="224 314.08 224 332.55 208 323.32 224 314.08"/>
    <polygon class="cls-5" points="224 295.6 224 314.08 208 304.84 224 295.6"/>
    <polygon class="cls-5" points="224 277.13 224 295.6 208 286.37 224 277.13"/>
    <polygon class="cls-5" points="224 258.65 224 277.13 208 267.89 224 258.65"/>
    <polygon class="cls-5" points="224 240.18 224 258.65 208 249.42 224 240.18"/>
    <polygon class="cls-5" points="224 221.7 224 240.18 208 230.94 224 221.7"/>
    <polygon class="cls-5" points="224 203.23 224 221.7 208 212.46 224 203.23"/>
    <polygon class="cls-2" points="224 184.75 224 203.23 208 193.99 224 184.75"/>
    <polygon class="cls-2" points="224 166.28 224 184.75 208 175.51 224 166.28"/>
    <polygon class="cls-2" points="224 147.8 224 166.28 208 157.04 224 147.8"/>
    <polygon class="cls-2" points="224 129.33 224 147.8 208 138.56 224 129.33"/>
    <polygon class="cls-2" points="224 110.85 224 129.33 208 120.09 224 110.85"/>
    <polygon class="cls-2" points="224 92.38 224 110.85 208 101.61 224 92.38"/>
    <polygon class="cls-2" points="224 73.9 224 92.38 208 83.14 224 73.9"/>
    <polygon class="cls-2" points="224 55.43 224 73.9 208 64.66 224 55.43"/>
    <polygon class="cls-2" points="224 36.95 224 55.43 208 46.19 224 36.95"/>
    <polygon class="cls-2" points="224 55.43 208 64.66 208 46.19 224 55.43"/>
    <polygon class="cls-2" points="224 73.9 208 83.14 208 64.66 224 73.9"/>
    <polygon class="cls-2" points="224 92.38 208 101.61 208 83.14 224 92.38"/>
    <polygon class="cls-2" points="224 110.85 208 120.09 208 101.61 224 110.85"/>
    <polygon class="cls-2" points="224 129.33 208 138.56 208 120.09 224 129.33"/>
    <polygon class="cls-2" points="224 147.8 208 157.04 208 138.56 224 147.8"/>
    <polygon class="cls-2" points="224 166.28 208 175.51 208 157.04 224 166.28"/>
    <polygon class="cls-2" points="224 184.75 208 193.99 208 175.51 224 184.75"/>
    <polygon class="cls-5" points="224 203.23 208 212.46 208 193.99 224 203.23"/>
    <polygon class="cls-5" points="224 221.7 208 230.94 208 212.46 224 221.7"/>
    <polygon class="cls-5" points="224 240.18 208 249.42 208 230.94 224 240.18"/>
    <polygon class="cls-5" points="224 258.65 208 267.89 208 249.42 224 258.65"/>
    <polygon class="cls-5" points="224 277.13 208 286.37 208 267.89 224 277.13"/>
    <polygon class="cls-5" points="224 295.6 208 304.84 208 286.37 224 295.6"/>
    <polygon class="cls-5" points="224 314.08 208 323.32 208 304.84 224 314.08"/>
    <polygon class="cls-5" points="224 332.55 208 341.79 208 323.32 224 332.55"/>
    <polygon class="cls-5" points="224 351.03 208 360.27 208 341.79 224 351.03"/>
    <polygon class="cls-5" points="224 369.5 208 378.74 208 360.27 224 369.5"/>
    <polygon class="cls-5" points="224 387.98 208 397.22 208 378.74 224 387.98"/>
    <polygon class="cls-5" points="224 406.45 208 415.69 208 397.22 224 406.45"/>
    <polygon class="cls-5" points="224 424.93 208 434.17 208 415.69 224 424.93"/>
    <polygon class="cls-5" points="224 443.41 208 452.64 208 434.17 224 443.41"/>
    <polygon class="cls-5" points="224 461.88 208 471.12 208 452.64 224 461.88"/>
    <polygon class="cls-5" points="208 452.64 208 471.12 192 461.88 208 452.64"/>
    <polygon class="cls-5" points="208 434.17 208 452.64 192 443.41 208 434.17"/>
    <polygon class="cls-5" points="208 415.69 208 434.17 192 424.93 208 415.69"/>
    <polygon class="cls-5" points="208 397.22 208 415.69 192 406.45 208 397.22"/>
    <polygon class="cls-5" points="208 378.74 208 397.22 192 387.98 208 378.74"/>
    <polygon class="cls-5" points="208 360.27 208 378.74 192 369.5 208 360.27"/>
    <polygon class="cls-5" points="208 341.79 208 360.27 192 351.03 208 341.79"/>
    <polygon class="cls-5" points="208 323.32 208 341.79 192 332.55 208 323.32"/>
    <polygon class="cls-5" points="208 304.84 208 323.32 192 314.08 208 304.84"/>
    <polygon class="cls-5" points="208 286.37 208 304.84 192 295.6 208 286.37"/>
    <polygon class="cls-5" points="208 267.89 208 286.37 192 277.13 208 267.89"/>
    <polygon class="cls-5" points="208 249.42 208 267.89 192 258.65 208 249.42"/>
    <polygon class="cls-5" points="208 230.94 208 249.42 192 240.18 208 230.94"/>
    <polygon class="cls-5" points="208 212.46 208 230.94 192 221.7 208 212.46"/>
    <polygon class="cls-5" points="208 193.99 208 212.46 192 203.23 208 193.99"/>
    <polygon class="cls-2" points="208 175.51 208 193.99 192 184.75 208 175.51"/>
    <polygon class="cls-2" points="208 157.04 208 175.51 192 166.28 208 157.04"/>
    <polygon class="cls-2" points="208 138.56 208 157.04 192 147.8 208 138.56"/>
    <polygon class="cls-2" points="208 120.09 208 138.56 192 129.33 208 120.09"/>
    <polygon class="cls-2" points="208 101.61 208 120.09 192 110.85 208 101.61"/>
    <polygon class="cls-2" points="208 83.14 208 101.61 192 92.38 208 83.14"/>
    <polygon class="cls-2" points="208 64.66 208 83.14 192 73.9 208 64.66"/>
    <polygon class="cls-2" points="208 46.19 208 64.66 192 55.43 208 46.19"/>
    <polygon class="cls-2" points="208 64.66 192 73.9 192 55.43 208 64.66"/>
    <polygon class="cls-2" points="208 83.14 192 92.38 192 73.9 208 83.14"/>
    <polygon class="cls-2" points="208 101.61 192 110.85 192 92.38 208 101.61"/>
    <polygon class="cls-2" points="208 120.09 192 129.33 192 110.85 208 120.09"/>
    <polygon class="cls-2" points="208 138.56 192 147.8 192 129.33 208 138.56"/>
    <polygon class="cls-2" points="208 157.04 192 166.28 192 147.8 208 157.04"/>
    <polygon class="cls-2" points="208 175.51 192 184.75 192 166.28 208 175.51"/>
    <polygon class="cls-5" points="208 193.99 192 203.23 192 184.75 208 193.99"/>
    <polygon class="cls-5" points="208 212.46 192 221.7 192 203.23 208 212.46"/>
    <polygon class="cls-5" points="208 230.94 192 240.18 192 221.7 208 230.94"/>
    <polygon class="cls-5" points="208 249.42 192 258.65 192 240.18 208 249.42"/>
    <polygon class="cls-5" points="208 267.89 192 277.13 192 258.65 208 267.89"/>
    <polygon class="cls-5" points="208 286.37 192 295.6 192 277.13 208 286.37"/>
    <polygon class="cls-5" points="208 304.84 192 314.08 192 295.6 208 304.84"/>
    <polygon class="cls-5" points="208 323.32 192 332.55 192 314.08 208 323.32"/>
    <polygon class="cls-5" points="208 341.79 192 351.03 192 332.55 208 341.79"/>
    <polygon class="cls-5" points="208 360.27 192 369.5 192 351.03 208 360.27"/>
    <polygon class="cls-5" points="208 378.74 192 387.98 192 369.5 208 378.74"/>
    <polygon class="cls-5" points="208 397.22 192 406.45 192 387.98 208 397.22"/>
    <polygon class="cls-5" points="208 415.69 192 424.93 192 406.45 208 415.69"/>
    <polygon class="cls-5" points="208 434.17 192 443.41 192 424.93 208 434.17"/>
    <polygon class="cls-5" points="208 452.64 192 461.88 192 443.41 208 452.64"/>
    <polygon class="cls-5" points="192 443.41 192 461.88 176 452.64 192 443.41"/>
    <polygon class="cls-5" points="192 424.93 192 443.41 176 434.17 192 424.93"/>
    <polygon class="cls-5" points="192 406.45 192 424.93 176 415.69 192 406.45"/>
    <polygon class="cls-5" points="192 387.98 192 406.45 176 397.22 192 387.98"/>
    <polygon class="cls-5" points="192 369.5 192 387.98 176 378.74 192 369.5"/>
    <polygon class="cls-5" points="192 351.03 192 369.5 176 360.27 192 351.03"/>
    <polygon class="cls-5" points="192 332.55 192 351.03 176 341.79 192 332.55"/>
    <polygon class="cls-5" points="192 314.08 192 332.55 176 323.32 192 314.08"/>
    <polygon class="cls-5" points="192 295.6 192 314.08 176 304.84 192 295.6"/>
    <polygon class="cls-5" points="192 277.13 192 295.6 176 286.37 192 277.13"/>
    <polygon class="cls-5" points="192 258.65 192 277.13 176 267.89 192 258.65"/>
    <polygon class="cls-5" points="192 240.18 192 258.65 176 249.42 192 240.18"/>
    <polygon class="cls-5" points="192 221.7 192 240.18 176 230.94 192 221.7"/>
    <polygon class="cls-5" points="192 203.23 192 221.7 176 212.46 192 203.23"/>
    <polygon class="cls-5" points="192 184.75 192 203.23 176 193.99 192 184.75"/>
    <polygon class="cls-2" points="192 166.28 192 184.75 176 175.51 192 166.28"/>
    <polygon class="cls-2" points="192 147.8 192 166.28 176 157.04 192 147.8"/>
    <polygon class="cls-2" points="192 129.33 192 147.8 176 138.56 192 129.33"/>
    <polygon class="cls-2" points="192 110.85 192 129.33 176 120.09 192 110.85"/>
    <polygon class="cls-2" points="192 92.38 192 110.85 176 101.61 192 92.38"/>
    <polygon class="cls-2" points="192 73.9 192 92.38 176 83.14 192 73.9"/>
    <polygon class="cls-2" points="192 55.43 192 73.9 176 64.66 192 55.43"/>
    <polygon class="cls-2" points="192 73.9 176 83.14 176 64.66 192 73.9"/>
    <polygon class="cls-2" points="192 92.38 176 101.61 176 83.14 192 92.38"/>
    <polygon class="cls-2" points="192 110.85 176 120.09 176 101.61 192 110.85"/>
    <polygon class="cls-2" points="192 129.33 176 138.56 176 120.09 192 129.33"/>
    <polygon class="cls-2" points="192 147.8 176 157.04 176 138.56 192 147.8"/>
    <polygon class="cls-2" points="192 166.28 176 175.51 176 157.04 192 166.28"/>
    <polygon class="cls-5" points="192 184.75 176 193.99 176 175.51 192 184.75"/>
    <polygon class="cls-5" points="192 203.23 176 212.46 176 193.99 192 203.23"/>
    <polygon class="cls-5" points="192 221.7 176 230.94 176 212.46 192 221.7"/>
    <polygon class="cls-5" points="192 240.18 176 249.42 176 230.94 192 240.18"/>
    <polygon class="cls-5" points="192 258.65 176 267.89 176 249.42 192 258.65"/>
    <polygon class="cls-5" points="192 277.13 176 286.37 176 267.89 192 277.13"/>
    <polygon class="cls-5" points="192 295.6 176 304.84 176 286.37 192 295.6"/>
    <polygon class="cls-5" points="192 314.08 176 323.32 176 304.84 192 314.08"/>
    <polygon class="cls-5" points="192 332.55 176 341.79 176 323.32 192 332.55"/>
    <polygon class="cls-5" points="192 351.03 176 360.27 176 341.79 192 351.03"/>
    <polygon class="cls-5" points="192 369.5 176 378.74 176 360.27 192 369.5"/>
    <polygon class="cls-5" points="192 387.98 176 397.22 176 378.74 192 387.98"/>
    <polygon class="cls-5" points="192 406.45 176 415.69 176 397.22 192 406.45"/>
    <polygon class="cls-5" points="192 424.93 176 434.17 176 415.69 192 424.93"/>
    <polygon class="cls-5" points="192 443.41 176 452.64 176 434.17 192 443.41"/>
    <polygon class="cls-5" points="176 434.17 176 452.64 160 443.41 176 434.17"/>
    <polygon class="cls-5" points="176 415.69 176 434.17 160 424.93 176 415.69"/>
    <polygon class="cls-5" points="176 397.22 176 415.69 160 406.45 176 397.22"/>
    <polygon class="cls-5" points="176 378.74 176 397.22 160 387.98 176 378.74"/>
    <polygon class="cls-5" points="176 360.27 176 378.74 160 369.5 176 360.27"/>
    <polygon class="cls-5" points="176 341.79 176 360.27 160 351.03 176 341.79"/>
    <polygon class="cls-5" points="176 323.32 176 341.79 160 332.55 176 323.32"/>
    <polygon class="cls-5" points="176 304.84 176 323.32 160 314.08 176 304.84"/>
    <polygon class="cls-5" points="176 286.37 176 304.84 160 295.6 176 286.37"/>
    <polygon class="cls-5" points="176 267.89 176 286.37 160 277.13 176 267.89"/>
    <polygon class="cls-5" points="176 249.42 176 267.89 160 258.65 176 249.42"/>
    <polygon class="cls-5" points="176 230.94 176 249.42 160 240.18 176 230.94"/>
    <polygon class="cls-5" points="176 212.46 176 230.94 160 221.7 176 212.46"/>
    <polygon class="cls-5" points="176 193.99 176 212.46 160 203.23 176 193.99"/>
    <polygon class="cls-5" points="176 175.51 176 193.99 160 184.75 176 175.51"/>
    <polygon class="cls-2" points="176 157.04 176 175.51 160 166.28 176 157.04"/>
    <polygon class="cls-2" points="176 138.56 176 157.04 160 147.8 176 138.56"/>
    <polygon class="cls-2" points="176 120.09 176 138.56 160 129.33 176 120.09"/>
    <polygon class="cls-2" points="176 101.61 176 120.09 160 110.85 176 101.61"/>
    <polygon class="cls-2" points="176 83.14 176 101.61 160 92.38 176 83.14"/>
    <polygon class="cls-2" points="176 64.66 176 83.14 160 73.9 176 64.66"/>
    <polygon class="cls-2" points="176 83.14 160 92.38 160 73.9 176 83.14"/>
    <polygon class="cls-2" points="176 101.61 160 110.85 160 92.38 176 101.61"/>
    <polygon class="cls-2" points="176 120.09 160 129.33 160 110.85 176 120.09"/>
    <polygon class="cls-2" points="176 138.56 160 147.8 160 129.33 176 138.56"/>
    <polygon class="cls-2" points="176 157.04 160 166.28 160 147.8 176 157.04"/>
    <polygon class="cls-5" points="176 175.51 160 184.75 160 166.28 176 175.51"/>
    <polygon class="cls-5" points="176 193.99 160 203.23 160 184.75 176 193.99"/>
    <polygon class="cls-5" points="176 212.46 160 221.7 160 203.23 176 212.46"/>
    <polygon class="cls-5" points="176 230.94 160 240.18 160 221.7 176 230.94"/>
    <polygon class="cls-5" points="176 249.42 160 258.65 160 240.18 176 249.42"/>
    <polygon class="cls-5" points="176 267.89 160 277.13 160 258.65 176 267.89"/>
    <polygon class="cls-5" points="176 286.37 160 295.6 160 277.13 176 286.37"/>
    <polygon class="cls-5" points="176 304.84 160 314.08 160 295.6 176 304.84"/>
    <polygon class="cls-5" points="176 323.32 160 332.55 160 314.08 176 323.32"/>
    <polygon class="cls-5" points="176 341.79 160 351.03 160 332.55 176 341.79"/>
    <polygon class="cls-5" points="176 360.27 160 369.5 160 351.03 176 360.27"/>
    <polygon class="cls-5" points="176 378.74 160 387.98 160 369.5 176 378.74"/>
    <polygon class="cls-5" points="176 397.22 160 406.45 160 387.98 176 397.22"/>
    <polygon class="cls-5" points="176 415.69 160 424.93 160 406.45 176 415.69"/>
    <polygon class="cls-5" points="176 434.17 160 443.41 160 424.93 176 434.17"/>
    <polygon class="cls-5" points="160 424.93 160 443.41 144 434.17 160 424.93"/>
    <polygon class="cls-5" points="160 406.45 160 424.93 144 415.69 160 406.45"/>
    <polygon class="cls-5" points="160 387.98 160 406.45 144 397.22 160 387.98"/>
    <polygon class="cls-5" points="160 369.5 160 387.98 144 378.74 160 369.5"/>
    <polygon class="cls-5" points="160 351.03 160 369.5 144 360.27 160 351.03"/>
    <polygon class="cls-5" points="160 332.55 160 351.03 144 341.79 160 332.55"/>
    <polygon class="cls-5" points="160 314.08 160 332.55 144 323.32 160 314.08"/>
    <polygon class="cls-5" points="160 295.6 160 314.08 144 304.84 160 295.6"/>
    <polygon class="cls-5" points="160 277.13 160 295.6 144 286.37 160 277.13"/>
    <polygon class="cls-5" points="160 258.65 160 277.13 144 267.89 160 258.65"/>
    <polygon class="cls-5" points="160 240.18 160 258.65 144 249.42 160 240.18"/>
    <polygon class="cls-5" points="160 221.7 160 240.18 144 230.94 160 221.7"/>
    <polygon class="cls-5" points="160 203.23 160 221.7 144 212.46 160 203.23"/>
    <polygon class="cls-5" points="160 184.75 160 203.23 144 193.99 160 184.75"/>
    <polygon class="cls-5" points="160 166.28 160 184.75 144 175.51 160 166.28"/>
    <polygon class="cls-2" points="160 147.8 160 166.28 144 157.04 160 147.8"/>
    <polygon class="cls-2" points="160 129.33 160 147.8 144 138.56 160 129.33"/>
    <polygon class="cls-2" points="160 110.85 160 129.33 144 120.09 160 110.85"/>
    <polygon class="cls-2" points="160 92.38 160 110.85 144 101.61 160 92.38"/>
    <polygon class="cls-2" points="160 73.9 160 92.38 144 83.14 160 73.9"/>
    <polygon class="cls-2" points="160 92.38 144 101.61 144 83.14 160 92.38"/>
    <polygon class="cls-2" points="160 110.85 144 120.09 144 101.61 160 110.85"/>
    <polygon class="cls-2" points="160 129.33 144 138.56 144 120.09 160 129.33"/>
    <polygon class="cls-2" points="160 147.8 144 157.04 144 138.56 160 147.8"/>
    <polygon class="cls-5" points="160 166.28 144 175.51 144 157.04 160 166.28"/>
    <polygon class="cls-5" points="160 184.75 144 193.99 144 175.51 160 184.75"/>
    <polygon class="cls-5" points="160 203.23 144 212.46 144 193.99 160 203.23"/>
    <polygon class="cls-5" points="160 221.7 144 230.94 144 212.46 160 221.7"/>
    <polygon class="cls-5" points="160 240.18 144 249.42 144 230.94 160 240.18"/>
    <polygon class="cls-5" points="160 258.65 144 267.89 144 249.42 160 258.65"/>
    <polygon class="cls-5" points="160 277.13 144 286.37 144 267.89 160 277.13"/>
    <polygon class="cls-5" points="160 295.6 144 304.84 144 286.37 160 295.6"/>
    <polygon class="cls-5" points="160 314.08 144 323.32 144 304.84 160 314.08"/>
    <polygon class="cls-5" points="160 332.55 144 341.79 144 323.32 160 332.55"/>
    <polygon class="cls-5" points="160 351.03 144 360.27 144 341.79 160 351.03"/>
    <polygon class="cls-5" points="160 369.5 144 378.74 144 360.27 160 369.5"/>
    <polygon class="cls-5" points="160 387.98 144 397.22 144 378.74 160 387.98"/>
    <polygon class="cls-5" points="160 406.45 144 415.69 144 397.22 160 406.45"/>
    <polygon class="cls-5" points="160 424.93 144 434.17 144 415.69 160 424.93"/>
    <polygon class="cls-5" points="144 415.69 144 434.17 128 424.93 144 415.69"/>
    <polygon class="cls-5" points="144 397.22 144 415.69 128 406.45 144 397.22"/>
    <polygon class="cls-5" points="144 378.74 144 397.22 128 387.98 144 378.74"/>
    <polygon class="cls-5" points="144 360.27 144 378.74 128 369.5 144 360.27"/>
    <polygon class="cls-5" points="144 341.79 144 360.27 128 351.03 144 341.79"/>
    <polygon class="cls-5" points="144 323.32 144 341.79 128 332.55 144 323.32"/>
    <polygon class="cls-5" points="144 304.84 144 323.32 128 314.08 144 304.84"/>
    <polygon class="cls-5" points="144 286.37 144 304.84 128 295.6 144 286.37"/>
    <polygon class="cls-5" points="144 267.89 144 286.37 128 277.13 144 267.89"/>
    <polygon class="cls-5" points="144 249.42 144 267.89 128 258.65 144 249.42"/>
    <polygon class="cls-5" points="144 230.94 144 249.42 128 240.18 144 230.94"/>
    <polygon class="cls-5" points="144 212.46 144 230.94 128 221.7 144 212.46"/>
    <polygon class="cls-5" points="144 193.99 144 212.46 128 203.23 144 193.99"/>
    <polygon class="cls-5" points="144 175.51 144 193.99 128 184.75 144 175.51"/>
    <polygon class="cls-5" points="144 157.04 144 175.51 128 166.28 144 157.04"/>
    <polygon class="cls-2" points="144 138.56 144 157.04 128 147.8 144 138.56"/>
    <polygon class="cls-2" points="144 120.09 144 138.56 128 129.33 144 120.09"/>
    <polygon class="cls-2" points="144 101.61 144 120.09 128 110.85 144 101.61"/>
    <polygon class="cls-2" points="144 83.14 144 101.61 128 92.38 144 83.14"/>
    <polygon class="cls-2" points="144 101.61 128 110.85 128 92.38 144 101.61"/>
    <polygon class="cls-2" points="144 120.09 128 129.33 128 110.85 144 120.09"/>
    <polygon class="cls-2" points="144 138.56 128 147.8 128 129.33 144 138.56"/>
    <polygon class="cls-5" points="144 157.04 128 166.28 128 147.8 144 157.04"/>
    <polygon class="cls-5" points="144 175.51 128 184.75 128 166.28 144 175.51"/>
    <polygon class="cls-5" points="144 193.99 128 203.23 128 184.75 144 193.99"/>
    <polygon class="cls-5" points="144 212.46 128 221.7 128 203.23 144 212.46"/>
    <polygon class="cls-5" points="144 230.94 128 240.18 128 221.7 144 230.94"/>
    <polygon class="cls-5" points="144 249.42 128 258.65 128 240.18 144 249.42"/>
    <polygon class="cls-5" points="144 267.89 128 277.13 128 258.65 144 267.89"/>
    <polygon class="cls-5" points="144 286.37 128 295.6 128 277.13 144 286.37"/>
    <polygon class="cls-5" points="144 304.84 128 314.08 128 295.6 144 304.84"/>
    <polygon class="cls-5" points="144 323.32 128 332.55 128 314.08 144 323.32"/>
    <polygon class="cls-5" points="144 341.79 128 351.03 128 332.55 144 341.79"/>
    <polygon class="cls-5" points="144 360.27 128 369.5 128 351.03 144 360.27"/>
    <polygon class="cls-5" points="144 378.74 128 387.98 128 369.5 144 378.74"/>
    <polygon class="cls-5" points="144 397.22 128 406.45 128 387.98 144 397.22"/>
    <polygon class="cls-5" points="144 415.69 128 424.93 128 406.45 144 415.69"/>
    <polygon class="cls-5" points="128 406.45 128 424.93 112 415.69 128 406.45"/>
    <polygon class="cls-5" points="128 387.98 128 406.45 112 397.22 128 387.98"/>
    <polygon class="cls-5" points="128 369.5 128 387.98 112 378.74 128 369.5"/>
    <polygon class="cls-5" points="128 351.03 128 369.5 112 360.27 128 351.03"/>
    <polygon class="cls-5" points="128 332.55 128 351.03 112 341.79 128 332.55"/>
    <polygon class="cls-5" points="128 314.08 128 332.55 112 323.32 128 314.08"/>
    <polygon class="cls-5" points="128 295.6 128 314.08 112 304.84 128 295.6"/>
    <polygon class="cls-5" points="128 277.13 128 295.6 112 286.37 128 277.13"/>
    <polygon class="cls-5" points="128 258.65 128 277.13 112 267.89 128 258.65"/>
    <polygon class="cls-5" points="128 240.18 128 258.65 112 249.42 128 240.18"/>
    <polygon class="cls-5" points="128 221.7 128 240.18 112 230.94 128 221.7"/>
    <polygon class="cls-5" points="128 203.23 128 221.7 112 212.46 128 203.23"/>
    <polygon class="cls-5" points="128 184.75 128 203.23 112 193.99 128 184.75"/>
    <polygon class="cls-5" points="128 166.28 128 184.75 112 175.51 128 166.28"/>
    <polygon class="cls-5" points="128 147.8 128 166.28 112 157.04 128 147.8"/>
    <polygon class="cls-2" points="128 129.33 128 147.8 112 138.56 128 129.33"/>
    <polygon class="cls-2" points="128 110.85 128 129.33 112 120.09 128 110.85"/>
    <polygon class="cls-2" points="128 92.38 128 110.85 112 101.61 128 92.38"/>
    <polygon class="cls-2" points="128 110.85 112 120.09 112 101.61 128 110.85"/>
    <polygon class="cls-2" points="128 129.33 112 138.56 112 120.09 128 129.33"/>
    <polygon class="cls-5" points="128 147.8 112 157.04 112 138.56 128 147.8"/>
    <polygon class="cls-5" points="128 166.28 112 175.51 112 157.04 128 166.28"/>
    <polygon class="cls-5" points="128 184.75 112 193.99 112 175.51 128 184.75"/>
    <polygon class="cls-5" points="128 203.23 112 212.46 112 193.99 128 203.23"/>
    <polygon class="cls-5" points="128 221.7 112 230.94 112 212.46 128 221.7"/>
    <polygon class="cls-5" points="128 240.18 112 249.42 112 230.94 128 240.18"/>
    <polygon class="cls-5" points="128 258.65 112 267.89 112 249.42 128 258.65"/>
    <polygon class="cls-5" points="128 277.13 112 286.37 112 267.89 128 277.13"/>
    <polygon class="cls-5" points="128 295.6 112 304.84 112 286.37 128 295.6"/>
    <polygon class="cls-5" points="128 314.08 112 323.32 112 304.84 128 314.08"/>
    <polygon class="cls-5" points="128 332.55 112 341.79 112 323.32 128 332.55"/>
    <polygon class="cls-5" points="128 351.03 112 360.27 112 341.79 128 351.03"/>
    <polygon class="cls-5" points="128 369.5 112 378.74 112 360.27 128 369.5"/>
    <polygon class="cls-5" points="128 387.98 112 397.22 112 378.74 128 387.98"/>
    <polygon class="cls-5" points="128 406.45 112 415.69 112 397.22 128 406.45"/>
    <polygon class="cls-5" points="112 397.22 112 415.69 96 406.45 112 397.22"/>
    <polygon class="cls-5" points="112 378.74 112 397.22 96 387.98 112 378.74"/>
    <polygon class="cls-5" points="112 360.27 112 378.74 96 369.5 112 360.27"/>
    <polygon class="cls-5" points="112 341.79 112 360.27 96 351.03 112 341.79"/>
    <polygon class="cls-5" points="112 323.32 112 341.79 96 332.55 112 323.32"/>
    <polygon class="cls-5" points="112 304.84 112 323.32 96 314.08 112 304.84"/>
    <polygon class="cls-5" points="112 286.37 112 304.84 96 295.6 112 286.37"/>
    <polygon class="cls-5" points="112 267.89 112 286.37 96 277.13 112 267.89"/>
    <polygon class="cls-5" points="112 249.42 112 267.89 96 258.65 112 249.42"/>
    <polygon class="cls-5" points="112 230.94 112 249.42 96 240.18 112 230.94"/>
    <polygon class="cls-5" points="112 212.46 112 230.94 96 221.7 112 212.46"/>
    <polygon class="cls-5" points="112 193.99 112 212.46 96 203.23 112 193.99"/>
    <polygon class="cls-5" points="112 175.51 112 193.99 96 184.75 112 175.51"/>
    <polygon class="cls-5" points="112 157.04 112 175.51 96 166.28 112 157.04"/>
    <polygon class="cls-5" points="112 138.56 112 157.04 96 147.8 112 138.56"/>
    <polygon class="cls-2" points="112 120.09 112 138.56 96 129.33 112 120.09"/>
    <polygon class="cls-2" points="112 101.61 112 120.09 96 110.85 112 101.61"/>
    <polygon class="cls-2" points="112 120.09 96 129.33 96 110.85 112 120.09"/>
    <polygon class="cls-5" points="112 138.56 96 147.8 96 129.33 112 138.56"/>
    <polygon class="cls-5" points="112 157.04 96 166.28 96 147.8 112 157.04"/>
    <polygon class="cls-5" points="112 175.51 96 184.75 96 166.28 112 175.51"/>
    <polygon class="cls-5" points="112 193.99 96 203.23 96 184.75 112 193.99"/>
    <polygon class="cls-5" points="112 212.46 96 221.7 96 203.23 112 212.46"/>
    <polygon class="cls-5" points="112 230.94 96 240.18 96 221.7 112 230.94"/>
    <polygon class="cls-5" points="112 249.42 96 258.65 96 240.18 112 249.42"/>
    <polygon class="cls-5" points="112 267.89 96 277.13 96 258.65 112 267.89"/>
    <polygon class="cls-5" points="112 286.37 96 295.6 96 277.13 112 286.37"/>
    <polygon class="cls-5" points="112 304.84 96 314.08 96 295.6 112 304.84"/>
    <polygon class="cls-5" points="112 323.32 96 332.55 96 314.08 112 323.32"/>
    <polygon class="cls-5" points="112 341.79 96 351.03 96 332.55 112 341.79"/>
    <polygon class="cls-5" points="112 360.27 96 369.5 96 351.03 112 360.27"/>
    <polygon class="cls-5" points="112 378.74 96 387.98 96 369.5 112 378.74"/>
    <polygon class="cls-5" points="112 397.22 96 406.45 96 387.98 112 397.22"/>
    <polygon class="cls-5" points="96 387.98 96 406.45 80 397.22 96 387.98"/>
    <polygon class="cls-5" points="96 369.5 96 387.98 80 378.74 96 369.5"/>
    <polygon class="cls-5" points="96 351.03 96 369.5 80 360.27 96 351.03"/>
    <polygon class="cls-5" points="96 332.55 96 351.03 80 341.79 96 332.55"/>
    <polygon class="cls-5" points="96 314.08 96 332.55 80 323.32 96 314.08"/>
    <polygon class="cls-5" points="96 295.6 96 314.08 80 304.84 96 295.6"/>
    <polygon class="cls-5" points="96 277.13 96 295.6 80 286.37 96 277.13"/>
    <polygon class="cls-5" points="96 258.65 96 277.13 80 267.89 96 258.65"/>
    <polygon class="cls-5" points="96 240.18 96 258.65 80 249.42 96 240.18"/>
    <polygon class="cls-5" points="96 221.7 96 240.18 80 230.94 96 221.7"/>
    <polygon class="cls-5" points="96 203.23 96 221.7 80 212.46 96 203.23"/>
    <polygon class="cls-5" points="96 184.75 96 203.23 80 193.99 96 184.75"/>
    <polygon class="cls-5" points="96 166.28 96 184.75 80 175.51 96 166.28"/>
    <polygon class="cls-5" points="96 147.8 96 166.28 80 157.04 96 147.8"/>
    <polygon class="cls-5" points="96 129.33 96 147.8 80 138.56 96 129.33"/>
    <polygon class="cls-2" points="96 110.85 96 129.33 80 120.09 96 110.85"/>
    <polygon class="cls-5" points="96 129.33 80 138.56 80 120.09 96 129.33"/>
    <polygon class="cls-5" points="96 147.8 80 157.04 80 138.56 96 147.8"/>
    <polygon class="cls-5" points="96 166.28 80 175.51 80 157.04 96 166.28"/>
    <polygon class="cls-5" points="96 184.75 80 193.99 80 175.51 96 184.75"/>
    <polygon class="cls-5" points="96 203.23 80 212.46 80 193.99 96 203.23"/>
    <polygon class="cls-5" points="96 221.7 80 230.94 80 212.46 96 221.7"/>
    <polygon class="cls-5" points="96 240.18 80 249.42 80 230.94 96 240.18"/>
    <polygon class="cls-5" points="96 258.65 80 267.89 80 249.42 96 258.65"/>
    <polygon class="cls-5" points="96 277.13 80 286.37 80 267.89 96 277.13"/>
    <polygon class="cls-5" points="96 295.6 80 304.84 80 286.37 96 295.6"/>
    <polygon class="cls-5" points="96 314.08 80 323.32 80 304.84 96 314.08"/>
    <polygon class="cls-5" points="96 332.55 80 341.79 80 323.32 96 332.55"/>
    <polygon class="cls-5" points="96 351.03 80 360.27 80 341.79 96 351.03"/>
    <polygon class="cls-5" points="96 369.5 80 378.74 80 360.27 96 369.5"/>
    <polygon class="cls-5" points="96 387.98 80 397.22 80 378.74 96 387.98"/>
  </g>
</svg>
