<?xml version="1.0" encoding="UTF-8" standalone="no"?>
<svg width="22px" height="22px" viewBox="0 0 22 22" version="1.1" xmlns="http://www.w3.org/2000/svg" xmlns:xlink="http://www.w3.org/1999/xlink">
    <!-- Generator: Sketch 45 (43475) - http://www.bohemiancoding.com/sketch -->
    <title>building-3</title>
    <desc>Created with Sketch.</desc>
    <defs></defs>
    <g id="Page-1" stroke="none" stroke-width="1" fill="none" fill-rule="evenodd">
        <g id="Artboard" transform="translate(-144.000000, -438.000000)" fill="#2B3445">
            <path d="M153.585353,441 C153.791271,440.417404 154.346891,440 155,440 C155.653109,440 156.208729,440.417404 156.414647,441 L159,441 C160.104569,441 161,441.895431 161,443 L161,457 L149,457 L149,443 L149,443 C149,441.895431 149.895431,441 151,441 L151,441 L153.585353,441 Z M157.5,443 C156.671573,443 156,443.671573 156,444.5 C156,445.328427 156.671573,446 157.5,446 C158.328427,446 159,445.328427 159,444.5 C159,443.671573 158.328427,443 157.5,443 Z M152.5,443 C151.671573,443 151,443.671573 151,444.5 C151,445.328427 151.671573,446 152.5,446 C153.328427,446 154,445.328427 154,444.5 C154,443.671573 153.328427,443 152.5,443 Z M152.5,448 C151.671573,448 151,448.671573 151,449.5 C151,450.328427 151.671573,451 152.5,451 C153.328427,451 154,450.328427 154,449.5 C154,448.671573 153.328427,448 152.5,448 Z M157.5,448 C156.671573,448 156,448.671573 156,449.5 C156,450.328427 156.671573,451 157.5,451 C158.328427,451 159,450.328427 159,449.5 C159,448.671573 158.328427,448 157.5,448 Z M155,454 C153.895431,454 153,454.895431 153,456 L153,457 L157,457 L157,456 C157,454.895431 156.104569,454 155,454 Z M148,457 L162,457 C162.552285,457 163,457.447715 163,458 C163,458.552285 162.552285,459 162,459 L148,459 C147.447715,459 147,458.552285 147,458 C147,457.447715 147.447715,457 148,457 L148,457 Z" id="Combined-Shape"></path>
        </g>
    </g>
</svg>