<?xml version="1.0" encoding="UTF-8" standalone="no"?>
<svg width="22px" height="22px" viewBox="0 0 22 22" version="1.1" xmlns="http://www.w3.org/2000/svg" xmlns:xlink="http://www.w3.org/1999/xlink">
    <!-- Generator: Sketch 45 (43475) - http://www.bohemiancoding.com/sketch -->
    <title>building-3</title>
    <desc>Created with Sketch.</desc>
    <defs></defs>
    <g id="Page-1" stroke="none" stroke-width="1" fill="none" fill-rule="evenodd">
        <g id="Artboard" transform="translate(-144.000000, -438.000000)" fill="#2B3445">
            <path d="M157,456 C157,454.895431 156.104569,454 155,454 C153.895431,454 153,454.895431 153,456 L148,456 L148,442 L148,442 C148,440.895431 148.895431,440 150,440 L150,440 L160,440 C161.104569,440 162,440.895431 162,442 L162,456 L157,456 Z M158,442 C156.895431,442 156,442.895431 156,444 C156,445.104569 156.895431,446 158,446 C159.104569,446 160,445.104569 160,444 L160,444 C160,442.895431 159.104569,442 158,442 Z M152,442 C150.895431,442 150,442.895431 150,444 C150,445.104569 150.895431,446 152,446 C153.104569,446 154,445.104569 154,444 L154,444 C154,442.895431 153.104569,442 152,442 Z M152,448 C150.895431,448 150,448.895431 150,450 C150,451.104569 150.895431,452 152,452 C153.104569,452 154,451.104569 154,450 C154,448.895431 153.104569,448 152,448 Z M158,448 C156.895431,448 156,448.895431 156,450 C156,451.104569 156.895431,452 158,452 C159.104569,452 160,451.104569 160,450 C160,448.895431 159.104569,448 158,448 Z M147,456 L163,456 C163.552285,456 164,456.447715 164,457 C164,457.552285 163.552285,458 163,458 L147,458 C146.447715,458 146,457.552285 146,457 C146,456.447715 146.447715,456 147,456 L147,456 Z" id="Combined-Shape"></path>
        </g>
    </g>
</svg>