<?xml version="1.0" encoding="UTF-8" standalone="no"?>
<svg width="30px" height="30px" viewBox="0 0 30 30" version="1.1" xmlns="http://www.w3.org/2000/svg" xmlns:xlink="http://www.w3.org/1999/xlink">
    <!-- Generator: Sketch 45 (43475) - http://www.bohemiancoding.com/sketch -->
    <title>building</title>
    <desc>Created with Sketch.</desc>
    <defs></defs>
    <g id="Page-1" stroke="none" stroke-width="1" fill="none" fill-rule="evenodd">
        <g id="Artboard" transform="translate(-139.000000, -129.000000)">
            <path d="M146.5,132 L161.5,132 C161.776142,132 162,132.223858 162,132.5 L162,155 L146,155 L146,132.5 L146,132.5 C146,132.223858 146.223858,132 146.5,132 L146.5,132 Z M149.5,134 C149.223858,134 149,134.223858 149,134.5 L149,136.5 C149,136.776142 149.223858,137 149.5,137 L152.5,137 C152.776142,137 153,136.776142 153,136.5 L153,134.5 C153,134.223858 152.776142,134 152.5,134 L149.5,134 Z M149.5,138 C149.223858,138 149,138.223858 149,138.5 L149,140.5 C149,140.776142 149.223858,141 149.5,141 L152.5,141 C152.776142,141 153,140.776142 153,140.5 L153,138.5 C153,138.223858 152.776142,138 152.5,138 L149.5,138 Z M155.5,138 C155.223858,138 155,138.223858 155,138.5 L155,140.5 C155,140.776142 155.223858,141 155.5,141 L158.5,141 C158.776142,141 159,140.776142 159,140.5 L159,138.5 C159,138.223858 158.776142,138 158.5,138 L155.5,138 Z M155.5,142 C155.223858,142 155,142.223858 155,142.5 L155,144.5 C155,144.776142 155.223858,145 155.5,145 L158.5,145 C158.776142,145 159,144.776142 159,144.5 L159,142.5 C159,142.223858 158.776142,142 158.5,142 L155.5,142 Z M149.5,142 C149.223858,142 149,142.223858 149,142.5 L149,144.5 C149,144.776142 149.223858,145 149.5,145 L152.5,145 C152.776142,145 153,144.776142 153,144.5 L153,142.5 C153,142.223858 152.776142,142 152.5,142 L149.5,142 Z M149.5,146 C149.223858,146 149,146.223858 149,146.5 L149,148.5 C149,148.776142 149.223858,149 149.5,149 L152.5,149 C152.776142,149 153,148.776142 153,148.5 L153,146.5 C153,146.223858 152.776142,146 152.5,146 L149.5,146 Z M155.5,146 C155.223858,146 155,146.223858 155,146.5 L155,148.5 C155,148.776142 155.223858,149 155.5,149 L158.5,149 C158.776142,149 159,148.776142 159,148.5 L159,146.5 C159,146.223858 158.776142,146 158.5,146 L155.5,146 Z M152.5,152 C152.223858,152 152,152.223858 152,152.5 L152,155 L156,155 L156,152.5 C156,152.223858 155.776142,152 155.5,152 L152.5,152 Z M155.5,134 C155.223858,134 155,134.223858 155,134.5 L155,136.5 C155,136.776142 155.223858,137 155.5,137 L158.5,137 C158.776142,137 159,136.776142 159,136.5 L159,134.5 C159,134.223858 158.776142,134 158.5,134 L155.5,134 Z" id="Combined-Shape" fill="#000000"></path>
            <rect id="Rectangle-3" stroke="#000000" x="142.5" y="155.5" width="23" height="1" rx="0.5"></rect>
        </g>
    </g>
</svg>