<?xml version="1.0" encoding="UTF-8" standalone="no"?>
<svg width="22px" height="22px" viewBox="0 0 22 22" version="1.1" xmlns="http://www.w3.org/2000/svg" xmlns:xlink="http://www.w3.org/1999/xlink">
    <!-- Generator: Sketch 45 (43475) - http://www.bohemiancoding.com/sketch -->
    <title>building-3</title>
    <desc>Created with Sketch.</desc>
    <defs></defs>
    <g id="Page-1" stroke="none" stroke-width="1" fill="none" fill-rule="evenodd">
        <g id="Artboard" transform="translate(-144.000000, -438.000000)" fill="#2B3445">
            <path d="M157,457 C157,455.895431 156.104569,455 155,455 C153.895431,455 153,455.895431 153,457 L148,457 L148,443 C148,441.895431 148.895431,441 150,441 L150,441 L160,441 C161.104569,441 162,441.895431 162,443 L162,457 L157,457 Z M158,443 C156.895431,443 156,443.895431 156,445 C156,446.104569 156.895431,447 158,447 C159.104569,447 160,446.104569 160,445 C160,443.895431 159.104569,443 158,443 Z M152,443 C150.895431,443 150,443.895431 150,445 C150,446.104569 150.895431,447 152,447 C153.104569,447 154,446.104569 154,445 C154,443.895431 153.104569,443 152,443 Z M152,449 C150.895431,449 150,449.895431 150,451 C150,452.104569 150.895431,453 152,453 C153.104569,453 154,452.104569 154,451 C154,449.895431 153.104569,449 152,449 Z M158,449 C156.895431,449 156,449.895431 156,451 C156,452.104569 156.895431,453 158,453 C159.104569,453 160,452.104569 160,451 C160,449.895431 159.104569,449 158,449 Z M147,457 L163,457 C163.552285,457 164,457.447715 164,458 C164,458.552285 163.552285,459 163,459 L147,459 C146.447715,459 146,458.552285 146,458 C146,457.447715 146.447715,457 147,457 L147,457 Z M155,439 C156.104569,439 157,439.895431 157,441 L157,441 L153,441 L153,441 C153,439.895431 153.895431,439 155,439 Z" id="Combined-Shape"></path>
        </g>
    </g>
</svg>