<?xml version="1.0" encoding="UTF-8" standalone="no"?>
<svg width="22px" height="22px" viewBox="0 0 22 22" version="1.1" xmlns="http://www.w3.org/2000/svg" xmlns:xlink="http://www.w3.org/1999/xlink">
    <!-- Generator: Sketch 45 (43475) - http://www.bohemiancoding.com/sketch -->
    <title>inventory</title>
    <desc>Created with Sketch.</desc>
    <defs></defs>
    <g id="Page-1" stroke="none" stroke-width="1" fill="none" fill-rule="evenodd">
        <g id="Artboard" transform="translate(-144.000000, -475.000000)" fill="#2B3445">
            <circle id="Oval-2" cx="148.5" cy="479.5" r="2.5"></circle>
            <circle id="Oval-2-Copy-3" cx="154.5" cy="489.774414" r="2.5"></circle>
            <circle id="Oval-2-Copy-4" cx="148.5" cy="491.774414" r="2.5"></circle>
            <circle id="Oval-2-Copy" cx="161.5" cy="478.5" r="1.5"></circle>
            <circle id="Oval-2-Copy-6" cx="162.5" cy="483.5" r="1.5"></circle>
            <circle id="Oval-2-Copy-5" cx="158.5" cy="492.5" r="1.5"></circle>
            <circle id="Oval-2-Copy-2" cx="156.223145" cy="482.223145" r="4.22314453"></circle>
            <path d="M149.5,488 C148.119288,488 147,486.880712 147,485.5 C147,484.119288 148.119288,483 149.5,483 C150.880712,483 152,484.119288 152,485.5 C152,486.880712 150.880712,488 149.5,488 Z M149.5,486.75 C150.190356,486.75 150.75,486.190356 150.75,485.5 C150.75,484.809644 150.190356,484.25 149.5,484.25 C148.809644,484.25 148.25,484.809644 148.25,485.5 C148.25,486.190356 148.809644,486.75 149.5,486.75 Z" id="Combined-Shape-Copy-3"></path>
            <path d="M161.5,491 C160.119288,491 159,489.880712 159,488.5 C159,487.119288 160.119288,486 161.5,486 C162.880712,486 164,487.119288 164,488.5 C164,489.880712 162.880712,491 161.5,491 Z M161.5,489.75 C162.190356,489.75 162.75,489.190356 162.75,488.5 C162.75,487.809644 162.190356,487.25 161.5,487.25 C160.809644,487.25 160.25,487.809644 160.25,488.5 C160.25,489.190356 160.809644,489.75 161.5,489.75 Z" id="Combined-Shape-Copy-4"></path>
        </g>
    </g>
</svg>