<?xml version="1.0" encoding="UTF-8" standalone="no"?>
<svg width="22px" height="22px" viewBox="0 0 22 22" version="1.1" xmlns="http://www.w3.org/2000/svg" xmlns:xlink="http://www.w3.org/1999/xlink">
    <!-- Generator: Sketch 45 (43475) - http://www.bohemiancoding.com/sketch -->
    <title>inventory</title>
    <desc>Created with Sketch.</desc>
    <defs></defs>
    <g id="Page-1" stroke="none" stroke-width="1" fill="none" fill-rule="evenodd">
        <g id="Artboard" transform="translate(-144.000000, -475.000000)" fill="#2B3445">
            <circle id="Oval-2" cx="150" cy="481" r="2"></circle>
            <circle id="Oval-2-Copy" cx="155" cy="481" r="2"></circle>
            <circle id="Oval-2-Copy-5" cx="160" cy="481" r="2"></circle>
            <circle id="Oval-2-Copy-3" cx="150" cy="486" r="2"></circle>
            <circle id="Oval-2-Copy-6" cx="155" cy="486" r="2"></circle>
            <circle id="Oval-2-Copy-8" cx="160" cy="491" r="2"></circle>
            <path d="M160,488 C158.895431,488 158,487.104569 158,486 C158,484.895431 158.895431,484 160,484 C161.104569,484 162,484.895431 162,486 C162,487.104569 161.104569,488 160,488 Z M160,487 C160.552285,487 161,486.552285 161,486 C161,485.447715 160.552285,485 160,485 C159.447715,485 159,485.447715 159,486 C159,486.552285 159.447715,487 160,487 Z" id="Combined-Shape"></path>
            <path d="M155,493 C153.895431,493 153,492.104569 153,491 C153,489.895431 153.895431,489 155,489 C156.104569,489 157,489.895431 157,491 C157,492.104569 156.104569,493 155,493 Z M155,492 C155.552285,492 156,491.552285 156,491 C156,490.447715 155.552285,490 155,490 C154.447715,490 154,490.447715 154,491 C154,491.552285 154.447715,492 155,492 Z" id="Combined-Shape-Copy-3"></path>
            <circle id="Oval-2-Copy-4" cx="150" cy="491" r="2"></circle>
        </g>
    </g>
</svg>