<?xml version="1.0" encoding="UTF-8" standalone="no"?>
<svg width="32px" height="32px" viewBox="0 0 32 32" version="1.1" xmlns="http://www.w3.org/2000/svg" xmlns:xlink="http://www.w3.org/1999/xlink">
    <!-- Generator: Sketch 45 (43475) - http://www.bohemiancoding.com/sketch -->
    <title>location</title>
    <desc>Created with Sketch.</desc>
    <defs></defs>
    <g id="Page-1" stroke="none" stroke-width="1" fill="none" fill-rule="evenodd">
        <g id="location" fill="#FFFFFF">
            <g id="Group" transform="translate(8.000000, 3.000000)">
                <path d="M8.16795528,25.6375331 C8.15042604,25.6672973 8.12548674,25.6920141 8.09556663,25.7092759 C7.99989069,25.7644742 7.87758298,25.7316605 7.82238472,25.6359846 L7.82238469,25.6359846 C6.14931116,22.7360221 4.97725239,20.6512187 4.30620837,19.3815743 C1.43540279,13.9498855 0,10.1539403 0,7.99373871 C0,3.57891873 3.57891873,0 7.99373871,0 C12.4085587,0 15.9874774,3.57891873 15.9874774,7.99373871 C15.9874774,10.904703 13.38097,16.7859678 8.16795528,25.6375331 Z M7.99373871,22.5961914 C12.2647662,15.2277465 14.4002799,10.3641123 14.4002799,8.00528897 C14.4002799,4.46705395 11.5319737,1.59874774 7.99373871,1.59874774 C4.45550369,1.59874774 1.58719749,4.46705395 1.58719749,8.00528897 C1.58719749,9.73657156 2.73759375,12.7788125 5.03838628,17.1320118 C5.59436755,18.1839526 6.57948503,20.0053457 7.99373871,22.5961914 Z" id="Combined-Shape"></path>
                <path d="M7.99624323,12.7924865 C5.34735124,12.7924865 3.2,10.6451352 3.2,7.99624323 C3.2,5.34735124 5.34735124,3.2 7.99624323,3.2 C10.6451352,3.2 12.7924865,5.34735124 12.7924865,7.99624323 C12.7924865,10.6451352 10.6451352,12.7924865 7.99624323,12.7924865 Z M7.99624323,11.1937387 C9.76217122,11.1937387 11.1937387,9.76217122 11.1937387,7.99624323 C11.1937387,6.23031523 9.76217122,4.79874774 7.99624323,4.79874774 C6.23031523,4.79874774 4.79874774,6.23031523 4.79874774,7.99624323 C4.79874774,9.76217122 6.23031523,11.1937387 7.99624323,11.1937387 Z" id="Combined-Shape"></path>
            </g>
        </g>
    </g>
</svg>