<?xml version="1.0" encoding="UTF-8" standalone="no"?>
<svg width="22px" height="22px" viewBox="0 0 22 22" version="1.1" xmlns="http://www.w3.org/2000/svg" xmlns:xlink="http://www.w3.org/1999/xlink">
    <!-- Generator: Sketch 45 (43475) - http://www.bohemiancoding.com/sketch -->
    <title>members</title>
    <desc>Created with Sketch.</desc>
    <defs></defs>
    <g id="Page-1" stroke="none" stroke-width="1" fill="none" fill-rule="evenodd">
        <g id="Artboard" transform="translate(-144.000000, -512.000000)" fill="#2B3445">
            <g id="Group-Copy-5" transform="translate(148.000000, 516.000000)">
                <rect id="Rectangle-5" x="2.59310123" y="0" width="8.64367075" height="8.64367075" rx="4.32183538"></rect>
                <path d="M4.6925824,10 L9.3074176,10 L9.3074176,10 C10.9336446,10 12.3960344,10.9900861 13,12.5 L13.4514437,13.6286093 L13.4514437,13.6286093 C13.6565571,14.1413928 13.4071412,14.7233633 12.8943577,14.9284767 C12.7762374,14.9757248 12.6501865,15 12.522967,15 L1.47703296,15 L1.47703296,15 C0.924748212,15 0.477032961,14.5522847 0.477032961,14 C0.477032961,13.8727806 0.50130816,13.7467296 0.548556271,13.6286093 L1,12.5 L1,12.5 C1.60396556,10.9900861 3.06635538,10 4.6925824,10 Z" id="Combined-Shape"></path>
            </g>
        </g>
    </g>
</svg>