<?xml version="1.0" encoding="UTF-8" standalone="no"?>
<svg width="22px" height="22px" viewBox="0 0 22 22" version="1.1" xmlns="http://www.w3.org/2000/svg" xmlns:xlink="http://www.w3.org/1999/xlink">
    <!-- Generator: Sketch 45 (43475) - http://www.bohemiancoding.com/sketch -->
    <title>sales</title>
    <desc>Created with Sketch.</desc>
    <defs></defs>
    <g id="Page-1" stroke="none" stroke-width="1" fill="none" fill-rule="evenodd">
        <g id="Artboard" transform="translate(-144.000000, -550.000000)" fill="#000000">
            <path d="M162.499416,565.764724 L162.503662,555.705955 L159.503662,555.704689 L159.500875,562.30782 L153.508621,560.331167 L153.508621,560.331167 C153.246378,560.244662 152.963661,560.387125 152.877155,560.649368 C152.876422,560.651592 152.875704,560.653822 152.875001,560.656056 L151.231228,565.885078 L149.109983,564.162809 L149.109983,564.162809 C148.466844,563.640636 147.522173,563.738698 147,564.381836 L147,564.381836 L147,564.381836 C146.477827,565.024974 146.575889,565.969646 147.219027,566.491819 L152.197355,570.533794 L152.197355,570.533794 C152.411735,570.707851 152.726625,570.675164 152.900683,570.460785 C152.940447,570.411809 152.970584,570.355751 152.989502,570.295569 L154.976595,563.97441 L161.842784,566.239346 L161.842784,566.239346 C162.105027,566.325852 162.387744,566.183388 162.474249,565.921145 C162.490898,565.870674 162.499394,565.817871 162.499416,565.764724 Z" id="Path-2" fill-rule="nonzero"></path>
            <path d="M161.378283,550.826678 L161.413328,550.826678 L161.413328,550.826678 C161.762801,550.826678 162.082281,551.024127 162.23857,551.336706 L164.489756,555.839078 L164.489756,555.839078 C164.736745,556.333057 164.536521,556.93373 164.042543,557.180719 C163.846643,557.278668 163.624004,557.309594 163.408826,557.268746 C162.094616,557.019264 161.239374,556.894523 160.843099,556.894523 C160.483569,556.894523 159.746241,556.997203 158.631114,557.202564 L158.631114,557.202564 C158.087963,557.30259 157.566565,556.943366 157.466538,556.400215 C157.419462,556.144587 157.473769,555.880674 157.61795,555.664402 L160.546233,551.271978 L160.546233,551.271978 C160.731699,550.993779 161.04393,550.826678 161.378283,550.826678 Z" id="Rectangle-12"></path>
        </g>
    </g>
</svg>