<?xml version="1.0" encoding="UTF-8" standalone="no"?>
<svg width="22px" height="22px" viewBox="0 0 22 22" version="1.1" xmlns="http://www.w3.org/2000/svg" xmlns:xlink="http://www.w3.org/1999/xlink">
    <!-- Generator: Sketch 45 (43475) - http://www.bohemiancoding.com/sketch -->
    <title>sales</title>
    <desc>Created with Sketch.</desc>
    <defs></defs>
    <g id="Page-1" stroke="none" stroke-width="1" fill="none" fill-rule="evenodd">
        <g id="Artboard" transform="translate(-144.000000, -550.000000)" fill="#000000">
            <path d="M161.499416,565.764724 L161.503662,555.705955 L158.503662,555.704689 L158.500875,562.30782 L152.508621,560.331167 L152.508621,560.331167 C152.246378,560.244662 151.963661,560.387125 151.877155,560.649368 C151.876422,560.651592 151.875704,560.653822 151.875001,560.656056 L150.231228,565.885078 L148.109983,564.162809 L148.109983,564.162809 C147.466844,563.640636 146.522173,563.738698 146,564.381836 L146,564.381836 L146,564.381836 C145.477827,565.024974 145.575889,565.969646 146.219027,566.491819 L151.197355,570.533794 L151.197355,570.533794 C151.411735,570.707851 151.726625,570.675164 151.900683,570.460785 C151.940447,570.411809 151.970584,570.355751 151.989502,570.295569 L153.976595,563.97441 L160.842784,566.239346 L160.842784,566.239346 C161.105027,566.325852 161.387744,566.183388 161.474249,565.921145 C161.490898,565.870674 161.499394,565.817871 161.499416,565.764724 Z" id="Path-2" fill-rule="nonzero" transform="translate(153.279092, 563.351212) rotate(18.000000) translate(-153.279092, -563.351212) "></path>
            <path d="M162.642482,552.814649 L162.677527,552.814649 L162.677527,552.814649 C163.027001,552.814649 163.34648,553.012098 163.502769,553.324677 L165.753955,557.827049 L165.753955,557.827049 C166.000945,558.321028 165.80072,558.921701 165.306742,559.16869 C165.110843,559.26664 164.888204,559.297565 164.673025,559.256717 C163.358815,559.007235 162.503573,558.882494 162.107299,558.882494 C161.747769,558.882494 161.01044,558.985175 159.895313,559.190535 L159.895313,559.190535 C159.352162,559.290561 158.830764,558.931338 158.730738,558.388186 C158.683662,558.132558 158.737968,557.868645 158.88215,557.652373 L161.810432,553.259949 L161.810432,553.259949 C161.995898,552.98175 162.308129,552.814649 162.642482,552.814649 Z" id="Rectangle-12" transform="translate(162.286972, 556.044457) rotate(15.000000) translate(-162.286972, -556.044457) "></path>
        </g>
    </g>
</svg>