<?xml version="1.0" encoding="UTF-8" standalone="no"?>
<svg width="22px" height="22px" viewBox="0 0 22 22" version="1.1" xmlns="http://www.w3.org/2000/svg" xmlns:xlink="http://www.w3.org/1999/xlink">
    <!-- Generator: Sketch 45 (43475) - http://www.bohemiancoding.com/sketch -->
    <title>sales</title>
    <desc>Created with Sketch.</desc>
    <defs></defs>
    <g id="Page-1" stroke="none" stroke-width="1" fill="none" fill-rule="evenodd">
        <g id="Artboard" transform="translate(-144.000000, -550.000000)" fill="#2B3445">
            <g id="Group" transform="translate(143.500000, 552.500000)">
                <path d="M16.7917077,12.4922607 L16.7955244,3.44960544 L14.079094,3.44845891 L14.0765704,9.42744124 L8.69624023,7.65264273 L8.69624023,7.65264273 C8.43399721,7.56613716 8.15128063,7.70860051 8.06477506,7.97084352 C8.0640413,7.97306793 8.06332318,7.97529747 8.06262075,7.97753198 L6.5885958,12.6665654 L4.6678574,11.1070909 L4.6678574,11.1070909 C4.08551055,10.6342753 3.23013239,10.7230679 2.75731679,11.3054148 L2.75731679,11.3054148 L2.75731679,11.3054148 C2.2845012,11.8877616 2.37329382,12.7431398 2.95564067,13.2159554 L7.40938998,16.8320171 L7.40938998,16.8320171 C7.62376941,17.0060747 7.93865989,16.9733875 8.11271756,16.7590081 C8.15248148,16.7100325 8.18261804,16.6539744 8.20153657,16.5937925 L9.97993927,10.9365004 L16.1350756,12.9668826 L16.1350756,12.9668826 C16.3973186,13.0533882 16.6800352,12.9109248 16.7665408,12.6486818 C16.7831897,12.5982103 16.7916853,12.5454072 16.7917077,12.4922607 Z" id="Path-2" fill-rule="nonzero" transform="translate(9.624507, 10.196162) rotate(18.000000) translate(-9.624507, -10.196162) "></path>
                <path d="M17.8213447,0.742417249 L17.8213447,0.742417249 L17.8213447,0.742417249 C18.1377851,0.742417249 18.4270662,0.921202825 18.5685826,1.20423565 L20.5217691,5.11060866 L20.5217691,5.11060865 C20.7687584,5.60458715 20.568534,6.2052602 20.0745555,6.45224945 C19.879581,6.5497367 19.6580917,6.5808439 19.4438065,6.54083536 C18.3578808,6.33808548 17.6449507,6.23671054 17.3050161,6.23671054 C17.0031566,6.23671054 16.4071785,6.31664784 15.5170817,6.47652245 L15.5170817,6.47652244 C14.9734958,6.57415856 14.4536827,6.21264483 14.3560466,5.66905893 C14.3103642,5.41472394 14.3649083,5.1525789 14.5082456,4.93757291 L17.0186084,1.17202867 L17.0186084,1.17202867 C17.1975401,0.903631236 17.4987712,0.742417249 17.8213447,0.742417249 Z" id="Rectangle-12" transform="translate(17.483927, 3.650120) rotate(15.000000) translate(-17.483927, -3.650120) "></path>
            </g>
        </g>
    </g>
</svg>